# Blender v2.81 (sub 16) OBJ File: ''
# www.blender.org
mtllib wall.mtl
o Cube.001
v 1.000000 -1.000000 -1.000000
v 1.000000 -1.000000 1.000000
v -1.000000 -1.000000 1.000000
v -1.000000 -1.000000 -1.000000
v 1.000000 1.000000 -1.000000
v -1.000000 1.000000 -1.000000
v -1.000000 1.000000 1.000000
v 0.999999 1.000000 1.000000
vt 0.002728 0.002728
vt 0.997272 0.002728
vt 0.997272 0.997272
vt 0.002728 0.997272
vt 0.995919 0.995918
vt 0.004083 0.995918
vt 0.004083 0.004082
vt 0.995916 0.004082
vt 0.003368 0.997362
vt 0.002638 0.003368
vt 0.996632 0.002638
vt 0.997362 0.996632
vt 0.000585 0.996193
vt 0.003811 0.000584
vt 0.999416 0.003807
vt 0.996193 0.999416
vt 0.001698 1.006010
vt -0.006009 0.001698
vt 0.998302 -0.006009
vt 1.006010 0.998302
vt 0.997281 0.002719
vt 0.997281 0.997281
vt 0.002719 0.002719
vn 0.0000 -1.0000 -0.0000
vn 0.0000 1.0000 0.0000
vn 1.0000 0.0000 0.0000
vn 0.0000 -0.0000 1.0000
vn -1.0000 -0.0000 0.0000
vn 0.0000 0.0000 -1.0000
usemtl Material.001
s 1
f 1/1/1 2/2/1 3/3/1 4/4/1
f 5/5/2 6/6/2 7/7/2 8/8/2
f 1/9/3 5/10/3 8/11/3 2/12/3
f 2/13/4 8/14/4 7/15/4 3/16/4
f 3/17/5 7/18/5 6/19/5 4/20/5
f 5/21/6 1/22/6 4/4/6 6/23/6
