# Blender v2.90.1 OBJ File: 'house.blend'
# www.blender.org
mtllib left_wall.mtl
o Cube.001
v 4.254992 0.398165 -4.470181
v 4.309827 0.398165 -4.470181
v 4.309828 0.398165 5.890641
v 4.254992 0.398165 5.890638
v 4.254992 2.988357 -4.470183
v 4.309827 2.988357 -4.470178
v 4.309828 2.988357 5.890643
v 4.254992 2.988357 5.890640
vn 0.0000 -1.0000 0.0000
vn 0.0000 1.0000 -0.0000
vn 0.0000 0.0000 -1.0000
vn 1.0000 0.0000 -0.0000
vn -0.0001 -0.0000 1.0000
vn -1.0000 -0.0000 0.0000
usemtl Material.020
s off
f 1//1 2//1 3//1 4//1
f 5//2 8//2 7//2 6//2
f 1//3 5//3 6//3 2//3
f 2//4 6//4 7//4 3//4
f 3//5 7//5 8//5 4//5
f 5//6 1//6 4//6 8//6
