# Blender v2.90.1 OBJ File: 'house.blend'
# www.blender.org
mtllib policka_real.mtl
o Cube.041_Cube.047
v -1.446360 0.950718 -1.658358
v -1.446360 2.010804 -1.658358
v -1.446360 0.950718 -1.393338
v -1.446360 2.010804 -1.393338
v -2.320877 0.950718 -1.658357
v -2.320877 2.010804 -1.658357
v -2.320877 0.950718 -1.393338
v -2.320877 2.010804 -1.393338
v -1.466583 0.975233 -1.658352
v -1.466583 1.986289 -1.658352
v -2.300654 1.986289 -1.658351
v -2.300654 0.975233 -1.658351
v -1.466583 0.975233 -1.542027
v -1.466583 1.986289 -1.542027
v -2.300654 1.986289 -1.542027
v -2.300654 0.975233 -1.542027
v -1.462305 1.991475 -1.393338
v -1.462305 0.970047 -1.393338
v -2.304932 0.970047 -1.393338
v -2.304932 1.991475 -1.393338
v -1.462305 1.991475 -1.480558
v -1.462305 0.970047 -1.480558
v -2.304932 0.970047 -1.480558
v -2.304932 1.991475 -1.480558
v -2.320877 1.475014 -1.393338
v -2.320877 1.420772 -1.393338
v -2.320877 1.475014 -1.658357
v -2.320877 1.420772 -1.658357
v -2.300654 1.473998 -1.658351
v -2.300654 1.422266 -1.658351
v -2.300654 1.473998 -1.542027
v -2.300654 1.422266 -1.542027
v -2.304932 1.474213 -1.393338
v -2.304932 1.421950 -1.393338
v -2.304932 1.474213 -1.480558
v -2.304932 1.421950 -1.480558
v -1.827765 1.473998 -1.657344
v -1.827765 1.422266 -1.657344
v -1.827765 1.473998 -1.541020
v -1.827765 1.422266 -1.541020
v -1.832042 1.474213 -1.392331
v -1.832042 1.421950 -1.392331
v -1.832042 1.474213 -1.479551
v -1.832042 1.421950 -1.479551
v -1.446360 1.422392 -1.658358
v -1.446360 1.474142 -1.658358
v -1.446360 1.474142 -1.393338
v -1.446360 1.422392 -1.393338
v -1.466583 1.423589 -1.658352
v -1.466583 1.472945 -1.658352
v -1.466583 1.423589 -1.542027
v -1.466583 1.472945 -1.542027
v -1.462305 1.473198 -1.393338
v -1.462305 1.423335 -1.393338
v -1.462305 1.473198 -1.480558
v -1.462305 1.423335 -1.480558
v -1.850643 2.010804 -1.393338
v -1.916595 2.010804 -1.393338
v -1.916595 2.010804 -1.658358
v -1.850643 2.010804 -1.658358
v -1.915069 1.986289 -1.658351
v -1.852168 1.986289 -1.658351
v -1.915069 1.986289 -1.542027
v -1.852168 1.986289 -1.542027
v -1.851845 1.991475 -1.393338
v -1.915392 1.991475 -1.393338
v -1.851845 1.991475 -1.480558
v -1.915392 1.991475 -1.480558
v -1.915069 1.425443 -1.657366
v -1.852168 1.425443 -1.657366
v -1.915069 1.425443 -1.541041
v -1.852168 1.425443 -1.541041
v -1.851845 1.430629 -1.392352
v -1.915392 1.430629 -1.392352
v -1.851845 1.430629 -1.479573
v -1.915392 1.430629 -1.479573
v -1.915392 1.685817 -1.392681
v -1.915392 1.732393 -1.393010
v -1.915392 1.732393 -1.480230
v -1.915392 1.685817 -1.479901
v -1.852168 1.731101 -1.541698
v -1.852168 1.684525 -1.541370
v -1.852168 1.684525 -1.657694
v -1.852168 1.731101 -1.658023
v -1.915069 1.731101 -1.541698
v -1.915069 1.684525 -1.541370
v -1.851845 1.685817 -1.392681
v -1.851845 1.732393 -1.393010
v -1.851845 1.685817 -1.479901
v -1.851845 1.732393 -1.480230
v -1.915069 1.731101 -1.658023
v -1.915069 1.684525 -1.657694
v -2.309404 1.685817 -1.392684
v -2.309404 1.732393 -1.393012
v -2.309404 1.732393 -1.480232
v -2.309404 1.685817 -1.479904
v -1.462668 1.731101 -1.541701
v -1.462668 1.684525 -1.541373
v -1.462668 1.684525 -1.657697
v -1.462668 1.731101 -1.658026
v -2.304977 1.731101 -1.541701
v -2.304977 1.684525 -1.541373
v -1.458242 1.685817 -1.392684
v -1.458242 1.732393 -1.393013
v -1.458242 1.685817 -1.479904
v -1.458242 1.732393 -1.480233
v -2.304977 1.731101 -1.658026
v -2.304977 1.684525 -1.657697
v -2.320877 1.205551 -1.393338
v -2.320877 1.178797 -1.393338
v -2.320877 1.205551 -1.658357
v -2.320877 1.178797 -1.658357
v -2.300654 1.207116 -1.658351
v -2.300654 1.181673 -1.658351
v -2.300654 1.207116 -1.542027
v -2.300654 1.181673 -1.542027
v -2.304932 1.206785 -1.393338
v -2.304932 1.181064 -1.393338
v -2.304932 1.206785 -1.480558
v -2.304932 1.181064 -1.480558
v -1.448375 1.207116 -1.638583
v -1.448375 1.181673 -1.638583
v -1.448375 1.207116 -1.522259
v -1.448375 1.181673 -1.522259
v -1.452653 1.206785 -1.373570
v -1.452653 1.181064 -1.373570
v -1.452653 1.206785 -1.460790
v -1.452653 1.181064 -1.460790
vn 1.0000 0.0000 -0.0000
vn 0.0000 0.0000 1.0000
vn -1.0000 0.0000 0.0000
vn -0.0003 0.0000 -1.0000
vn 0.0000 -1.0000 0.0000
vn 0.0000 1.0000 -0.0000
vn -0.0000 0.0002 -1.0000
vn -0.0000 -0.0003 -1.0000
vn 0.0003 0.0000 -1.0000
vn 0.0000 -0.9965 0.0841
vn 0.9976 0.0000 0.0694
vn 0.0000 0.9965 0.0841
vn -0.9976 0.0000 0.0694
vn 0.0000 -1.0000 -0.0051
vn 0.0027 1.0000 -0.0033
vn 0.0027 1.0000 0.0000
vn 0.0027 0.0000 1.0000
vn -0.0021 0.0000 1.0000
vn 0.0021 0.0000 -1.0000
vn 0.0000 1.0000 -0.0035
vn 0.0037 -1.0000 0.0000
vn 0.0037 -1.0000 -0.0049
vn 0.0029 1.0000 0.0000
vn -0.0028 0.0000 -1.0000
vn -1.0000 -0.0000 -0.0052
vn 0.0000 -0.0002 -1.0000
vn 0.0000 0.0013 1.0000
vn -0.0000 -0.0013 -1.0000
vn 1.0000 -0.0000 -0.0052
vn 0.0000 -0.0071 -1.0000
vn 0.0000 0.0071 1.0000
vn 0.9974 -0.0005 -0.0718
vn -0.9974 -0.0005 -0.0718
vn -0.0000 0.9998 -0.0210
vn 0.0000 -0.9998 0.0210
vn 0.0002 -1.0000 -0.0099
vn -0.0232 0.0000 0.9997
vn -0.0001 1.0000 0.0054
vn 0.0232 0.0000 -0.9997
vn 0.0029 1.0000 -0.0043
vn 0.0037 -1.0000 -0.0044
usemtl BMD_BeechWood
s off
f 2//1 47//1 46//1
f 47//2 17//2 53//2
f 8//3 27//3 25//3
f 45//4 9//4 49//4
f 7//5 1//5 3//5
f 4//6 60//6 57//6
f 12//6 13//6 9//6
f 5//7 9//7 1//7
f 60//8 10//8 62//8
f 27//9 11//9 29//9
f 20//5 68//5 66//5
f 9//3 51//3 49//3
f 10//5 64//5 62//5
f 11//1 31//1 29//1
f 17//3 55//3 53//3
f 110//2 19//2 118//2
f 3//2 19//2 7//2
f 58//2 20//2 66//2
f 19//1 120//1 118//1
f 18//6 23//6 19//6
f 68//10 15//10 63//10
f 120//11 16//11 116//11
f 16//12 22//12 13//12
f 55//13 14//13 52//13
f 15//11 35//11 31//11
f 32//14 44//14 36//14
f 33//1 24//1 20//1
f 34//5 44//5 42//5
f 25//2 20//2 8//2
f 25//2 34//2 33//2
f 30//1 115//1 113//1
f 31//6 37//6 29//6
f 28//9 113//9 111//9
f 27//9 30//9 28//9
f 26//3 111//3 109//3
f 25//3 28//3 26//3
f 55//15 39//15 43//15
f 53//16 43//16 41//16
f 54//17 41//17 42//17
f 34//18 41//18 33//18
f 32//5 38//5 40//5
f 29//19 38//19 30//19
f 33//6 43//6 35//6
f 31//20 43//20 39//20
f 13//13 56//13 51//13
f 44//21 54//21 42//21
f 54//3 22//3 18//3
f 40//22 56//22 44//22
f 50//3 14//3 10//3
f 38//21 51//21 40//21
f 46//4 10//4 2//4
f 45//4 50//4 46//4
f 48//2 18//2 3//2
f 47//2 54//2 48//2
f 45//1 3//1 1//1
f 46//1 48//1 45//1
f 52//23 37//23 39//23
f 37//24 49//24 38//24
f 14//10 67//10 64//10
f 86//25 76//25 80//25
f 57//2 17//2 4//2
f 57//2 66//2 65//2
f 61//5 15//5 11//5
f 82//1 70//1 83//1
f 65//5 21//5 17//5
f 77//3 76//3 74//3
f 59//26 11//26 6//26
f 60//26 61//26 59//26
f 58//6 6//6 8//6
f 57//6 59//6 58//6
f 75//10 71//10 72//10
f 70//5 71//5 69//5
f 74//5 75//5 73//5
f 77//27 73//27 87//27
f 87//1 75//1 89//1
f 86//3 69//3 71//3
f 83//28 69//28 92//28
f 82//29 75//29 72//29
f 64//29 90//29 81//29
f 83//5 98//5 82//5
f 62//28 91//28 61//28
f 84//30 92//30 91//30
f 63//3 91//3 85//3
f 92//5 102//5 108//5
f 65//1 90//1 67//1
f 84//6 97//6 100//6
f 66//27 88//27 65//27
f 78//31 87//31 88//31
f 66//3 79//3 78//3
f 91//6 101//6 85//6
f 64//1 84//1 62//1
f 80//5 93//5 96//5
f 63//25 79//25 68//25
f 79//6 94//6 78//6
f 97//32 105//32 98//32
f 101//3 108//3 102//3
f 104//1 105//1 106//1
f 94//3 96//3 93//3
f 97//1 99//1 100//1
f 101//33 96//33 95//33
f 84//30 99//30 83//30
f 90//6 104//6 106//6
f 92//30 107//30 91//30
f 79//34 101//34 95//34
f 89//5 103//5 87//5
f 77//31 94//31 93//31
f 90//34 97//34 81//34
f 80//35 102//35 86//35
f 89//35 98//35 105//35
f 87//31 104//31 88//31
f 110//3 5//3 7//3
f 109//3 112//3 110//3
f 112//9 12//9 5//9
f 111//9 114//9 112//9
f 114//1 16//1 12//1
f 115//6 121//6 113//6
f 36//11 115//11 32//11
f 116//36 128//36 120//36
f 34//1 119//1 36//1
f 118//5 128//5 126//5
f 26//2 117//2 34//2
f 109//2 118//2 117//2
f 121//1 124//1 122//1
f 127//11 124//11 123//11
f 126//1 127//1 125//1
f 117//6 127//6 119//6
f 118//37 125//37 117//37
f 115//38 127//38 123//38
f 113//39 122//39 114//39
f 116//5 122//5 124//5
f 2//1 4//1 47//1
f 47//2 4//2 17//2
f 8//3 6//3 27//3
f 45//4 1//4 9//4
f 7//5 5//5 1//5
f 4//6 2//6 60//6
f 12//6 16//6 13//6
f 5//7 12//7 9//7
f 60//26 2//26 10//26
f 27//9 6//9 11//9
f 20//5 24//5 68//5
f 9//3 13//3 51//3
f 10//5 14//5 64//5
f 11//1 15//1 31//1
f 17//3 21//3 55//3
f 110//2 7//2 19//2
f 3//2 18//2 19//2
f 58//2 8//2 20//2
f 19//1 23//1 120//1
f 18//6 22//6 23//6
f 68//10 24//10 15//10
f 120//11 23//11 16//11
f 16//12 23//12 22//12
f 55//13 21//13 14//13
f 15//11 24//11 35//11
f 32//14 40//14 44//14
f 33//1 35//1 24//1
f 34//5 36//5 44//5
f 25//2 33//2 20//2
f 25//2 26//2 34//2
f 30//1 32//1 115//1
f 31//6 39//6 37//6
f 28//9 30//9 113//9
f 27//9 29//9 30//9
f 26//3 28//3 111//3
f 25//3 27//3 28//3
f 55//40 52//40 39//40
f 53//16 55//16 43//16
f 54//17 53//17 41//17
f 34//18 42//18 41//18
f 32//5 30//5 38//5
f 29//19 37//19 38//19
f 33//6 41//6 43//6
f 31//20 35//20 43//20
f 13//13 22//13 56//13
f 44//21 56//21 54//21
f 54//3 56//3 22//3
f 40//41 51//41 56//41
f 50//3 52//3 14//3
f 38//21 49//21 51//21
f 46//4 50//4 10//4
f 45//4 49//4 50//4
f 48//2 54//2 18//2
f 47//2 53//2 54//2
f 45//1 48//1 3//1
f 46//1 47//1 48//1
f 52//23 50//23 37//23
f 37//24 50//24 49//24
f 14//10 21//10 67//10
f 86//25 71//25 76//25
f 57//2 65//2 17//2
f 57//2 58//2 66//2
f 61//5 63//5 15//5
f 82//1 72//1 70//1
f 65//5 67//5 21//5
f 77//3 80//3 76//3
f 59//26 61//26 11//26
f 60//8 62//8 61//8
f 58//6 59//6 6//6
f 57//6 60//6 59//6
f 75//10 76//10 71//10
f 70//5 72//5 71//5
f 74//5 76//5 75//5
f 77//27 74//27 73//27
f 87//1 73//1 75//1
f 86//3 92//3 69//3
f 83//28 70//28 69//28
f 82//29 89//29 75//29
f 64//29 67//29 90//29
f 83//5 99//5 98//5
f 62//28 84//28 91//28
f 84//30 83//30 92//30
f 63//3 61//3 91//3
f 92//5 86//5 102//5
f 65//1 88//1 90//1
f 84//6 81//6 97//6
f 66//27 78//27 88//27
f 78//31 77//31 87//31
f 66//3 68//3 79//3
f 91//6 107//6 101//6
f 64//1 81//1 84//1
f 80//5 77//5 93//5
f 63//25 85//25 79//25
f 79//6 95//6 94//6
f 97//32 106//32 105//32
f 101//3 107//3 108//3
f 104//1 103//1 105//1
f 94//3 95//3 96//3
f 97//1 98//1 99//1
f 101//33 102//33 96//33
f 84//30 100//30 99//30
f 90//6 88//6 104//6
f 92//30 108//30 107//30
f 79//34 85//34 101//34
f 89//5 105//5 103//5
f 77//31 78//31 94//31
f 90//34 106//34 97//34
f 80//35 96//35 102//35
f 89//35 82//35 98//35
f 87//31 103//31 104//31
f 110//3 112//3 5//3
f 109//3 111//3 112//3
f 112//9 114//9 12//9
f 111//9 113//9 114//9
f 114//1 116//1 16//1
f 115//6 123//6 121//6
f 36//11 119//11 115//11
f 116//36 124//36 128//36
f 34//1 117//1 119//1
f 118//5 120//5 128//5
f 26//2 109//2 117//2
f 109//2 110//2 118//2
f 121//1 123//1 124//1
f 127//11 128//11 124//11
f 126//1 128//1 127//1
f 117//6 125//6 127//6
f 118//37 126//37 125//37
f 115//38 119//38 127//38
f 113//39 121//39 122//39
f 116//5 114//5 122//5
