# Blender v2.90.1 OBJ File: 'house.blend'
# www.blender.org
mtllib wall.mtl
o Cube.003_Cube.004
v 4.316871 0.948897 -4.400130
v 4.316871 0.894061 -4.400130
v -2.427605 0.894061 -4.400130
v -2.427603 0.948897 -4.400130
v 4.316873 0.948896 5.852901
v 4.316869 0.894061 5.852901
v -2.427605 0.894061 5.852901
v -2.427604 0.948896 5.852901
vn 0.0000 0.0000 -1.0000
vn 0.0000 0.0000 1.0000
vn 1.0000 0.0000 -0.0000
vn -0.0000 -1.0000 -0.0000
vn -1.0000 0.0000 -0.0000
vn 0.0000 1.0000 0.0000
vn 1.0000 -0.0001 0.0000
usemtl Material.002
s off
f 2//1 4//1 1//1
f 8//2 6//2 5//2
f 5//3 2//3 1//3
f 6//4 3//4 2//4
f 7//5 4//5 3//5
f 1//6 8//6 5//6
f 2//1 3//1 4//1
f 8//2 7//2 6//2
f 5//7 6//7 2//7
f 6//4 7//4 3//4
f 7//5 8//5 4//5
f 1//6 4//6 8//6
