# Blender v2.90.1 OBJ File: 'Project.blend'
# www.blender.org
mtllib Chao.mtl
o Chao_Plane.002
v 7.222393 -1.451297 -2.822737
v -7.539449 -1.451297 -2.822740
v 7.222393 -1.451297 1.493661
v -7.539449 -1.451297 1.493659
v 7.222393 -1.499888 -2.822737
v -7.539449 -1.499888 -2.822740
v 7.222393 -1.499888 1.493661
v -7.539449 -1.499888 1.493659
vt 0.000000 0.000000
vt 0.000000 1.000000
vt 0.956909 1.000000
vt 0.956909 0.000000
vt 0.967683 1.000000
vt 0.978455 1.000000
vt 0.978455 0.000000
vt 0.967682 0.000000
vt 0.978455 0.292402
vt 0.989228 0.292402
vt 0.989227 0.000000
vt 0.978455 0.000000
vt 0.989228 0.292402
vt 1.000000 0.292402
vt 1.000000 0.000000
vt 0.989228 0.000000
vt 0.967682 0.000000
vt 0.956909 0.000000
vt 0.956910 1.000000
vt 0.967682 1.000000
vn 0.0000 1.0000 0.0000
vn 0.0000 0.0000 -1.0000
vn -1.0000 0.0000 -0.0000
vn 1.0000 0.0000 0.0000
vn -0.0000 0.0000 1.0000
usemtl ChaoMaterial
s off
f 1/1/1 2/2/1 4/3/1 3/4/1
f 1/5/2 5/6/2 6/7/2 2/8/2
f 2/9/3 6/10/3 8/11/3 4/12/3
f 3/13/4 7/14/4 5/15/4 1/16/4
f 4/17/5 8/18/5 7/19/5 3/20/5
