# Blender v2.90.1 OBJ File: 'Project.blend'
# www.blender.org
mtllib Luminaria2.mtl
o Luminaria.002_Cylinder.013
v 2.451102 -0.092155 -0.507590
v 2.381194 0.201773 -0.507590
v 2.442239 -0.092155 -0.457326
v 2.376547 0.201773 -0.481236
v 2.416719 -0.092155 -0.413124
v 2.363167 0.201773 -0.458060
v 2.377620 -0.092155 -0.380316
v 2.342666 0.201773 -0.440859
v 2.329659 -0.092155 -0.362860
v 2.317519 0.201773 -0.431706
v 2.278619 -0.092155 -0.362860
v 2.290758 0.201773 -0.431706
v 2.230657 -0.092155 -0.380316
v 2.265611 0.201773 -0.440859
v 2.191558 -0.092155 -0.413124
v 2.245111 0.201773 -0.458060
v 2.166038 -0.092155 -0.457326
v 2.231730 0.201773 -0.481236
v 2.157175 -0.092155 -0.507590
v 2.227083 0.201773 -0.507590
v 2.166038 -0.092155 -0.557855
v 2.231730 0.201773 -0.533945
v 2.191558 -0.092155 -0.602057
v 2.245111 0.201773 -0.557121
v 2.230657 -0.092155 -0.634865
v 2.265611 0.201773 -0.574322
v 2.278619 -0.092155 -0.652321
v 2.290758 0.201773 -0.583475
v 2.329659 -0.092155 -0.652321
v 2.317519 0.201773 -0.583475
v 2.377620 -0.092155 -0.634865
v 2.342666 0.201773 -0.574322
v 2.416719 -0.092155 -0.602057
v 2.363167 0.201773 -0.557121
v 2.442239 -0.092155 -0.557855
v 2.376547 0.201773 -0.533945
v 2.435938 -0.076990 -0.507590
v 2.427989 -0.076990 -0.462513
v 2.369076 0.186608 -0.483955
v 2.373243 0.186608 -0.507590
v 2.405102 -0.076990 -0.422872
v 2.357076 0.186608 -0.463171
v 2.370038 -0.076990 -0.393449
v 2.338691 0.186608 -0.447744
v 2.327025 -0.076990 -0.377794
v 2.316139 0.186608 -0.439536
v 2.281252 -0.076990 -0.377794
v 2.292139 0.186608 -0.439536
v 2.238239 -0.076990 -0.393449
v 2.269587 0.186608 -0.447744
v 2.203175 -0.076990 -0.422872
v 2.251202 0.186608 -0.463171
v 2.180288 -0.076990 -0.462513
v 2.239202 0.186608 -0.483955
v 2.172340 -0.076990 -0.507590
v 2.235034 0.186608 -0.507590
v 2.180288 -0.076990 -0.552668
v 2.239202 0.186608 -0.531226
v 2.203175 -0.076990 -0.592309
v 2.251202 0.186608 -0.552010
v 2.238239 -0.076990 -0.621732
v 2.269587 0.186608 -0.567437
v 2.281252 -0.076990 -0.637387
v 2.292139 0.186608 -0.575645
v 2.327025 -0.076990 -0.637387
v 2.316139 0.186608 -0.575645
v 2.370038 -0.076990 -0.621732
v 2.338691 0.186608 -0.567437
v 2.405102 -0.076990 -0.592309
v 2.357076 0.186608 -0.552010
v 2.427989 -0.076990 -0.552668
v 2.369076 0.186608 -0.531226
v 2.330694 -0.223204 -0.402052
v 2.351360 -0.223204 -0.162847
v 2.325623 -0.238813 -0.402052
v 2.342342 -0.250960 -0.162847
v 2.312345 -0.248460 -0.402052
v 2.318731 -0.268114 -0.162847
v 2.295933 -0.248460 -0.402052
v 2.289546 -0.268114 -0.162847
v 2.282655 -0.238813 -0.402052
v 2.265936 -0.250960 -0.162847
v 2.277583 -0.223204 -0.402052
v 2.256917 -0.223204 -0.162847
v 2.282655 -0.207595 -0.402052
v 2.265936 -0.195448 -0.162847
v 2.295933 -0.197948 -0.402052
v 2.289546 -0.178294 -0.162847
v 2.312345 -0.197948 -0.402052
v 2.318731 -0.178294 -0.162847
v 2.325623 -0.207595 -0.402052
v 2.342342 -0.195448 -0.162847
v 2.330694 -0.208630 -0.454101
v 2.325623 -0.219668 -0.465138
v 2.312345 -0.226489 -0.471959
v 2.295933 -0.226489 -0.471959
v 2.282655 -0.219668 -0.465138
v 2.277583 -0.208630 -0.454101
v 2.282655 -0.197593 -0.443063
v 2.295933 -0.190772 -0.436242
v 2.312345 -0.190772 -0.436242
v 2.325623 -0.197593 -0.443063
v 2.330694 -0.158663 -0.504068
v 2.325623 -0.158663 -0.519677
v 2.312345 -0.158663 -0.529324
v 2.295933 -0.158663 -0.529324
v 2.282655 -0.158663 -0.519677
v 2.277583 -0.158663 -0.504068
v 2.282655 -0.158663 -0.488459
v 2.295933 -0.158663 -0.478812
v 2.312345 -0.158663 -0.478812
v 2.325623 -0.158663 -0.488459
v 2.330694 0.110803 -0.504068
v 2.325623 0.110803 -0.519677
v 2.312345 0.110803 -0.529324
v 2.295933 0.110803 -0.529324
v 2.282655 0.110803 -0.519677
v 2.277583 0.110803 -0.504068
v 2.282655 0.110803 -0.488459
v 2.295933 0.110803 -0.478812
v 2.312345 0.110803 -0.478812
v 2.325623 0.110803 -0.488459
vt 0.038327 0.330987
vt 0.193443 0.523386
vt 0.173048 0.542072
vt 0.026858 0.341496
vt 0.160053 0.551614
vt 0.019550 0.346862
vt 0.875192 0.213202
vt 0.868973 0.060436
vt 0.897391 0.060436
vt 0.891173 0.213202
vt 0.247711 0.196287
vt 0.395937 0.000000
vt 0.408379 0.016194
vt 0.254708 0.205394
vt 0.427973 0.037961
vt 0.265727 0.217635
vt 0.447235 0.056987
vt 0.276559 0.228335
vt 0.920917 0.263541
vt 0.904102 0.067161
vt 0.931324 0.060436
vt 0.936226 0.259759
vt 0.958127 0.067161
vt 0.951299 0.263541
vt 0.891173 0.272626
vt 0.904102 0.274992
vt 0.904102 0.361296
vt 0.891173 0.366735
vt 0.049577 0.319350
vt 0.213447 0.502692
vt 0.056310 0.311028
vt 0.225420 0.487895
vt 0.255808 0.267029
vt 0.240707 0.268124
vt 0.225420 0.267678
vt 0.904102 0.221987
vt 0.000000 0.277779
vt 0.015279 0.279285
vt 0.875192 0.272626
vt 0.862262 0.221987
vt 0.862262 0.274992
vt 0.030338 0.279662
vt 0.254330 0.880813
vt 0.267259 0.873553
vt 0.267259 0.912337
vt 0.254330 0.912272
vt 0.238349 0.880813
vt 0.238349 0.912272
vt 0.225420 0.873553
vt 0.225420 0.912337
vt 0.019334 0.204129
vt 0.009131 0.191160
vt 0.205234 0.000000
vt 0.215437 0.012969
vt 0.254330 0.968879
vt 0.238349 0.968879
vt 0.241870 0.343031
vt 0.231214 0.354189
vt 0.875192 0.366735
vt 0.862262 0.361296
vt 0.267259 0.976231
vt 0.252339 0.330330
vt 0.029317 0.215969
vt 0.225420 0.976231
vt 0.303282 0.874191
vt 0.315157 0.873553
vt 0.327032 0.882810
vt 0.334372 0.898426
vt 0.334372 0.914436
vt 0.327032 0.924724
vt 0.315157 0.925362
vt 0.303282 0.916105
vt 0.295943 0.900490
vt 0.295943 0.884480
vt 0.811382 0.000000
vt 0.826147 0.002082
vt 0.826147 0.276523
vt 0.811382 0.274441
vt 0.430482 0.541050
vt 0.419827 0.552208
vt 0.875192 0.612129
vt 0.862262 0.606690
vt 0.841687 0.000811
vt 0.841687 0.275252
vt 0.440951 0.528349
vt 0.891173 0.612129
vt 0.225420 0.024809
vt 0.258622 0.320940
vt 0.447235 0.518959
vt 0.841687 0.000000
vt 0.857049 0.003256
vt 0.857049 0.216975
vt 0.841687 0.213719
vt 0.088568 0.875904
vt 0.040610 0.873801
vt 0.072304 0.553686
vt 0.097449 0.554789
vt 0.000000 0.869848
vt 0.051011 0.551614
vt 0.225420 0.580548
vt 0.263492 0.562051
vt 0.297528 0.863855
vt 0.277566 0.873553
vt 0.310194 0.552208
vt 0.322015 0.858694
vt 0.359893 0.552208
vt 0.348073 0.858694
vt 0.406596 0.562051
vt 0.372560 0.863855
vt 0.444668 0.580548
vt 0.392521 0.873553
vt 1.000000 0.935748
vt 0.954840 0.934763
vt 0.936360 0.624266
vt 0.960038 0.624782
vt 0.905307 0.934763
vt 0.910389 0.624266
vt 0.857374 0.935748
vt 0.885257 0.624782
vt 0.666295 0.607585
vt 0.626998 0.618473
vt 0.591640 0.299055
vt 0.612244 0.293347
vt 0.579666 0.624266
vt 0.566823 0.302093
vt 0.530009 0.624266
vt 0.540787 0.302093
vt 0.484016 0.618473
vt 0.516672 0.299055
vt 0.447235 0.607585
vt 0.497387 0.293347
vt 0.218470 0.869848
vt 0.183206 0.873801
vt 0.147069 0.553686
vt 0.165559 0.551614
vt 0.702661 0.311293
vt 0.729875 0.596297
vt 0.710808 0.597168
vt 0.666295 0.312953
vt 0.138091 0.875904
vt 0.123415 0.554789
vt 0.745648 0.310410
vt 0.752414 0.595834
vt 0.811382 0.000000
vt 0.786951 0.250504
vt 0.764703 0.253302
vt 0.768949 0.005337
vt 0.741354 0.253381
vt 0.724416 0.005486
vt 0.491933 0.718532
vt 0.693073 0.825405
vt 0.683919 0.849056
vt 0.474472 0.763640
vt 0.680549 0.873731
vt 0.468045 0.810702
vt 0.683370 0.896455
vt 0.473427 0.854042
vt 0.693073 0.916337
vt 0.730343 0.642338
vt 0.751557 0.641349
vt 0.733532 0.914451
vt 0.774843 0.641349
vt 0.777945 0.914451
vt 0.797394 0.642338
vt 0.820955 0.916337
vt 0.816489 0.644197
vt 0.857374 0.919882
vt 0.500817 0.217411
vt 0.613772 0.000000
vt 0.632111 0.014542
vt 0.535795 0.245146
vt 0.653773 0.024188
vt 0.577108 0.263545
vt 0.676143 0.027776
vt 0.619775 0.270388
vt 0.696526 0.024873
vt 0.658649 0.264851
vt 0.862262 0.312953
vt 0.813557 0.597168
vt 0.796940 0.596297
vt 0.830570 0.311293
vt 0.790070 0.310410
vt 0.775705 0.595834
vt 0.765985 0.271340
vt 0.739950 0.271427
vt 0.271951 0.978043
vt 0.267259 0.951108
vt 0.283828 0.949629
vt 0.288035 0.973785
vt 0.779144 0.928791
vt 0.729621 0.928791
vt 0.744215 0.293347
vt 0.793748 0.293347
vt 0.749719 0.624266
vt 0.775685 0.624266
vt 0.777731 0.611612
vt 0.751759 0.611612
vt 0.454401 0.757306
vt 0.473870 0.707008
vt 0.619290 0.293347
vt 0.571714 0.285716
vt 0.696282 0.294332
vt 0.715826 0.268470
vt 0.719720 0.250729
vt 0.267259 0.922445
vt 0.283828 0.923924
vt 0.726627 0.612129
vt 0.459413 0.196669
vt 0.447235 0.156918
vt 0.465474 0.148037
vt 0.476395 0.183686
vt 0.800830 0.625369
vt 0.447235 0.809783
vt 0.662637 0.287172
vt 0.696526 0.262826
vt 0.702411 0.245667
vt 0.271951 0.895511
vt 0.288035 0.899769
vt 0.539123 0.636218
vt 0.577036 0.624266
vt 0.584453 0.644328
vt 0.550452 0.655048
vt 0.486645 0.234275
vt 0.811382 0.262442
vt 0.790794 0.268220
vt 0.805415 0.245323
vt 0.822122 0.627441
vt 0.453235 0.858109
vt 0.696526 0.267938
vt 0.689041 0.247601
vt 0.707575 0.627441
vt 0.726065 0.625369
vt 0.713762 0.644197
vt 0.280768 0.873553
vt 0.295943 0.880077
vt 0.503294 0.664954
vt 0.518320 0.680818
vt 0.525647 0.265201
vt 0.280768 1.000000
vt 0.295943 0.993476
vt 0.471679 0.896455
vt 0.489968 0.888431
vt 0.838908 0.294332
vt 0.801409 0.612129
vn 0.9982 -0.0269 -0.0535
vn 0.9963 0.0000 -0.0861
vn 0.8060 -0.5856 -0.0861
vn 0.7842 -0.6052 -0.1371
vn 0.3078 -0.9475 -0.0861
vn 0.2926 -0.9384 -0.1838
vn -0.3079 -0.9475 -0.0861
vn -0.2926 -0.9384 -0.1838
vn -0.8060 -0.5856 -0.0861
vn -0.7842 -0.6052 -0.1371
vn -0.9963 0.0000 -0.0861
vn -0.9982 -0.0269 -0.0535
vn -0.8060 0.5856 -0.0861
vn -0.8134 0.5811 0.0260
vn -0.3079 0.9475 -0.0861
vn -0.3065 0.9499 0.0615
vn 0.3078 0.9475 -0.0861
vn 0.3065 0.9499 0.0615
vn -0.2791 -0.7960 -0.5371
vn -0.7660 -0.5416 -0.3464
vn -0.7765 -0.2354 -0.5844
vn -0.2934 -0.3142 -0.9029
vn 0.8134 0.5811 0.0260
vn 0.8060 0.5856 -0.0861
vn -0.8061 0.5248 0.2734
vn -0.9987 -0.0460 -0.0197
vn 0.7660 -0.5416 -0.3464
vn 0.9987 -0.0460 -0.0197
vn 0.2791 -0.7960 -0.5371
vn 0.8061 0.5248 0.2734
vn 0.2942 0.8699 0.3959
vn -0.2942 0.8699 0.3959
vn 0.9962 -0.0567 -0.0650
vn 0.7765 -0.2354 -0.5844
vn 0.6191 0.6437 -0.4498
vn 0.7653 0.6437 0.0000
vn 0.3335 0.4462 0.8304
vn -0.3335 0.4462 0.8304
vn -0.9962 -0.0567 -0.0650
vn 0.2934 -0.3142 -0.9029
vn 0.8483 0.2235 0.4799
vn -0.8483 0.2235 0.4799
vn 0.2365 0.6437 -0.7278
vn -0.2365 0.6437 -0.7278
vn -0.6191 0.6437 -0.4498
vn -0.7653 0.6437 0.0000
vn -0.6191 0.6437 0.4498
vn -0.2365 0.6437 0.7278
vn 0.2365 0.6437 0.7278
vn 0.6191 0.6437 0.4498
vn -0.5610 0.8278 0.0000
vn -0.5271 0.8278 -0.1918
vn -0.2098 -0.9747 -0.0764
vn -0.2233 -0.9747 0.0000
vn -0.4297 0.8278 -0.3606
vn -0.1711 -0.9747 -0.1436
vn -0.2805 0.8278 -0.4858
vn -0.1117 -0.9747 -0.1934
vn -0.0974 0.8278 -0.5524
vn -0.0388 -0.9747 -0.2199
vn 0.0974 0.8278 -0.5524
vn 0.0388 -0.9747 -0.2199
vn 0.2805 0.8278 -0.4858
vn 0.1117 -0.9747 -0.1934
vn 0.4297 0.8278 -0.3606
vn 0.1711 -0.9747 -0.1436
vn 0.5271 0.8278 -0.1918
vn 0.2098 -0.9747 -0.0764
vn 0.5610 0.8278 0.0000
vn 0.2233 -0.9747 0.0000
vn 0.5271 0.8278 0.1918
vn 0.2098 -0.9747 0.0764
vn 0.4297 0.8278 0.3606
vn 0.1711 -0.9747 0.1436
vn 0.2805 0.8278 0.4858
vn 0.1117 -0.9747 0.1934
vn 0.0974 0.8278 0.5524
vn 0.0388 -0.9747 0.2199
vn -0.0974 0.8278 0.5524
vn -0.0388 -0.9747 0.2199
vn -0.2805 0.8278 0.4858
vn -0.1117 -0.9747 0.1934
vn -0.4297 0.8278 0.3606
vn -0.1711 -0.9747 0.1436
vn 0.8133 0.5010 0.2960
vn 0.9318 -0.1294 0.3391
vn 0.7596 -0.1294 0.6374
vn 0.6630 0.5010 0.5563
vn -0.5271 0.8278 0.1918
vn -0.2098 -0.9747 0.0764
vn 0.8654 0.5010 0.0000
vn 0.9916 -0.1294 0.0000
vn 0.4958 -0.1294 0.8587
vn 0.4327 0.5010 0.7495
vn 0.1722 -0.1294 0.9765
vn 0.1503 0.5010 0.8523
vn -0.1722 -0.1294 0.9765
vn -0.1503 0.5010 0.8523
vn -0.4958 -0.1294 0.8587
vn -0.4327 0.5010 0.7495
vn -0.7596 -0.1294 0.6374
vn -0.6630 0.5010 0.5563
vn -0.9318 -0.1294 0.3391
vn -0.8133 0.5010 0.2960
vn -0.9916 -0.1294 0.0000
vn -0.8654 0.5010 0.0000
vn -0.9318 -0.1294 -0.3391
vn -0.8133 0.5010 -0.2960
vn -0.7596 -0.1294 -0.6374
vn -0.6630 0.5010 -0.5563
vn -0.4958 -0.1294 -0.8587
vn -0.4327 0.5010 -0.7495
vn -0.1722 -0.1294 -0.9765
vn -0.1503 0.5010 -0.8523
vn 0.1722 -0.1294 -0.9765
vn 0.1503 0.5010 -0.8523
vn 0.4958 -0.1294 -0.8587
vn 0.4327 0.5010 -0.7495
vn 0.7596 -0.1294 -0.6374
vn 0.6630 0.5010 -0.5563
vn 0.8133 0.5010 -0.2960
vn 0.9318 -0.1294 -0.3391
usemtl LuminariaMaterial
s 1
f 73/1/1 74/2/2 76/3/3 75/4/4
f 75/4/4 76/3/3 78/5/5 77/6/6
f 77/7/6 78/8/5 80/9/7 79/10/8
f 79/11/8 80/12/7 82/13/9 81/14/10
f 81/14/10 82/13/9 84/15/11 83/16/12
f 83/16/12 84/15/11 86/17/13 85/18/14
f 85/19/14 86/20/13 88/21/15 87/22/16
f 87/22/16 88/21/15 90/23/17 89/24/18
f 96/25/19 97/26/20 107/27/21 106/28/22
f 91/29/23 92/30/24 74/2/2 73/1/1
f 89/31/18 90/32/17 92/30/24 91/29/23
f 83/16/12 85/18/14 99/33/25 98/34/26
f 81/14/10 83/16/12 98/34/26 97/35/20
f 79/10/8 81/36/10 97/26/20 96/25/19
f 73/1/1 75/4/4 94/37/27 93/38/28
f 77/7/6 79/10/8 96/25/19 95/39/29
f 75/40/4 77/7/6 95/39/29 94/41/27
f 91/29/23 73/1/1 93/38/28 102/42/30
f 89/43/18 91/44/23 102/45/30 101/46/31
f 87/47/16 89/43/18 101/46/31 100/48/32
f 85/49/14 87/47/16 100/48/32 99/50/25
f 103/51/33 104/52/34 114/53/35 113/54/36
f 93/38/28 94/37/27 104/52/34 103/51/33
f 100/48/32 101/46/31 111/55/37 110/56/38
f 97/35/20 98/34/26 108/57/39 107/58/21
f 94/41/27 95/39/29 105/59/40 104/60/34
f 101/46/31 102/45/30 112/61/41 111/55/37
f 98/34/26 99/33/25 109/62/42 108/57/39
f 95/39/29 96/25/19 106/28/22 105/59/40
f 102/42/30 93/38/28 103/51/33 112/63/41
f 99/50/25 100/48/32 110/56/38 109/64/42
f 113/65/36 114/66/35 115/67/43 116/68/44 117/69/45 118/70/46 119/71/47 120/72/48 121/73/49 122/74/50
f 110/75/38 111/76/37 121/77/49 120/78/48
f 107/58/21 108/57/39 118/79/46 117/80/45
f 104/60/34 105/59/40 115/81/43 114/82/35
f 111/76/37 112/83/41 122/84/50 121/77/49
f 108/57/39 109/62/42 119/85/47 118/79/46
f 105/59/40 106/28/22 116/86/44 115/81/43
f 112/63/41 103/51/33 113/54/36 122/87/50
f 109/62/42 110/88/38 120/89/48 119/85/47
f 106/90/22 107/91/21 117/92/45 116/93/44
usemtl Luminaria02Material
f 1/94/51 3/95/52 4/96/53 2/97/54
f 3/95/52 5/98/55 6/99/56 4/96/53
f 5/100/55 7/101/57 8/102/58 6/103/56
f 7/101/57 9/104/59 10/105/60 8/102/58
f 9/104/59 11/106/61 12/107/62 10/105/60
f 11/106/61 13/108/63 14/109/64 12/107/62
f 13/108/63 15/110/65 16/111/66 14/109/64
f 15/112/65 17/113/67 18/114/68 16/115/66
f 17/113/67 19/116/69 20/117/70 18/114/68
f 19/116/69 21/118/71 22/119/72 20/117/70
f 21/120/71 23/121/73 24/122/74 22/123/72
f 23/121/73 25/124/75 26/125/76 24/122/74
f 25/124/75 27/126/77 28/127/78 26/125/76
f 27/126/77 29/128/79 30/129/80 28/127/78
f 29/128/79 31/130/81 32/131/82 30/129/80
f 31/132/81 33/133/83 34/134/84 32/135/82
f 38/136/85 39/137/86 42/138/87 41/139/88
f 35/140/89 1/94/51 2/97/54 36/141/90
f 33/133/83 35/140/89 36/141/90 34/134/84
f 37/142/91 40/143/92 39/137/86 38/136/85
f 41/144/88 42/145/87 44/146/93 43/147/94
f 43/147/94 44/146/93 46/148/95 45/149/96
f 45/150/96 46/151/95 48/152/97 47/153/98
f 47/153/98 48/152/97 50/154/99 49/155/100
f 49/155/100 50/154/99 52/156/101 51/157/102
f 51/158/102 52/159/101 54/160/103 53/161/104
f 53/161/104 54/160/103 56/162/105 55/163/106
f 55/163/106 56/162/105 58/164/107 57/165/108
f 57/165/108 58/164/107 60/166/109 59/167/110
f 59/168/110 60/169/109 62/170/111 61/171/112
f 61/171/112 62/170/111 64/172/113 63/173/114
f 63/173/114 64/172/113 66/174/115 65/175/116
f 65/175/116 66/174/115 68/176/117 67/177/118
f 67/178/118 68/179/117 70/180/119 69/181/120
f 71/182/121 72/183/122 40/143/92 37/142/91
f 69/181/120 70/180/119 72/183/122 71/182/121
f 8/184/58 10/185/60 46/148/95 44/146/93
f 26/186/76 28/187/78 64/188/113 62/189/111
f 19/190/69 17/191/67 53/161/104 55/163/106
f 1/192/51 35/193/89 71/182/121 37/142/91
f 18/194/68 20/195/70 56/162/105 54/160/103
f 36/196/90 2/197/54 40/143/92 72/183/122
f 11/198/61 9/199/59 45/150/96 47/153/98
f 29/200/79 27/201/77 63/173/114 65/175/116
f 3/202/52 1/192/51 37/142/91 38/136/85
f 10/185/60 12/203/62 48/204/97 46/148/95
f 28/187/78 30/205/80 66/206/115 64/188/113
f 2/197/54 4/207/53 39/137/86 40/143/92
f 21/208/71 19/209/69 55/210/106 57/211/108
f 20/195/70 22/212/72 58/164/107 56/162/105
f 13/213/63 11/198/61 47/153/98 49/155/100
f 31/214/81 29/200/79 65/175/116 67/177/118
f 12/203/62 14/215/64 50/216/99 48/204/97
f 30/205/80 32/217/82 68/218/117 66/206/115
f 5/219/55 3/220/52 38/221/85 41/222/88
f 23/223/73 21/208/71 57/211/108 59/168/110
f 4/224/53 6/225/56 42/145/87 39/226/86
f 22/212/72 24/227/74 60/166/109 58/164/107
f 15/228/65 13/213/63 49/155/100 51/157/102
f 33/229/83 31/214/81 67/177/118 69/230/120
f 14/231/64 16/232/66 52/159/101 50/233/99
f 32/217/82 34/234/84 70/235/119 68/218/117
f 7/236/57 5/219/55 41/222/88 43/237/94
f 25/238/75 23/223/73 59/168/110 61/171/112
f 6/225/56 8/184/58 44/146/93 42/145/87
f 24/239/74 26/186/76 62/189/111 60/240/109
f 17/241/67 15/228/65 51/157/102 53/242/104
f 35/193/89 33/243/83 69/181/120 71/182/121
f 16/232/66 18/194/68 54/160/103 52/159/101
f 34/244/84 36/196/90 72/183/122 70/180/119
f 9/199/59 7/236/57 43/237/94 45/150/96
f 27/201/77 25/238/75 61/171/112 63/173/114
