# Blender v2.90.1 OBJ File: 'Project.blend'
# www.blender.org
mtllib Porta1.mtl
o Porta.002_Cube.007
v 2.938452 -0.471256 -0.043239
v 2.938452 -0.471256 0.000922
v 2.922429 -0.462005 -0.043239
v 2.922429 -0.462005 0.000922
v 2.922429 -0.443502 -0.043239
v 2.922429 -0.443502 0.000922
v 2.938452 -0.434251 -0.043239
v 2.938452 -0.434251 0.000922
v 2.954476 -0.443502 -0.043239
v 2.954476 -0.443502 0.000922
v 2.954476 -0.462005 -0.043239
v 2.954476 -0.462005 0.000922
v 2.922429 -0.462005 0.010241
v 2.938452 -0.471256 0.010241
v 2.922429 -0.443502 0.010241
v 2.938452 -0.434251 0.010241
v 2.954476 -0.443502 0.010241
v 2.954476 -0.462005 0.010241
v 3.054110 -0.443502 0.000922
v 3.038086 -0.434251 0.000922
v 3.054110 -0.462005 0.000922
v 3.038086 -0.471256 0.000922
v 3.054110 -0.443502 0.010241
v 3.038086 -0.434251 0.010241
v 3.054110 -0.462005 0.010241
v 3.038086 -0.471256 0.010241
v 2.938452 -0.434251 -0.159643
v 2.938452 -0.434251 -0.203804
v 2.922429 -0.443502 -0.159643
v 2.922429 -0.443502 -0.203804
v 2.922429 -0.462005 -0.159643
v 2.922429 -0.462005 -0.203804
v 2.938452 -0.471256 -0.159643
v 2.938452 -0.471256 -0.203804
v 2.954476 -0.462005 -0.159643
v 2.954476 -0.462005 -0.203804
v 2.954476 -0.443502 -0.159643
v 2.954476 -0.443502 -0.203804
v 2.922429 -0.443502 -0.213123
v 2.938452 -0.434251 -0.213123
v 2.922429 -0.462005 -0.213123
v 2.938452 -0.471256 -0.213123
v 2.954476 -0.462005 -0.213123
v 2.954476 -0.443502 -0.213123
v 3.054110 -0.462005 -0.203804
v 3.038086 -0.471256 -0.203804
v 3.054110 -0.443502 -0.203804
v 3.038086 -0.434251 -0.203804
v 3.054110 -0.462005 -0.213123
v 3.038086 -0.471256 -0.213123
v 3.054110 -0.443502 -0.213123
v 3.038086 -0.434251 -0.213123
v 2.892853 -1.098621 -0.165029
v 2.892853 -1.505236 -0.038669
v 3.678690 -1.098621 -0.038669
v 3.678690 -1.505236 -0.165029
v 3.678690 -1.505236 -0.038669
v 3.678690 -1.098621 -0.165029
v 2.892853 -1.505236 -0.165029
v 2.892853 -1.098621 -0.038669
v 3.509018 -1.098621 -0.038669
v 3.509018 -1.098621 -0.165029
v 3.509018 -1.505236 -0.165029
v 3.509018 -1.505236 -0.038669
v 2.980492 -1.098621 -0.038669
v 2.980492 -1.098621 -0.165029
v 2.980492 -1.505236 -0.165029
v 2.980492 -1.505236 -0.038669
v 3.019521 -1.137114 -0.038669
v 3.469988 -1.137114 -0.038669
v 3.019521 -1.137114 -0.165029
v 3.469988 -1.137114 -0.165029
v 3.019521 -1.466743 -0.165029
v 3.469988 -1.466743 -0.165029
v 3.019521 -1.466743 -0.038669
v 3.469988 -1.466743 -0.038669
v 3.019521 -1.137222 -0.054933
v 3.469988 -1.137222 -0.054933
v 3.019521 -1.137222 -0.148765
v 3.469988 -1.137222 -0.148765
v 3.019521 -1.466851 -0.148765
v 3.469988 -1.466851 -0.148765
v 3.019521 -1.466851 -0.054933
v 3.469988 -1.466851 -0.054933
v 2.892853 -0.673561 -0.165029
v 2.892853 -1.098621 -0.038669
v 3.678690 -0.673561 -0.038669
v 3.678690 -1.098621 -0.165029
v 3.678690 -1.098621 -0.038669
v 3.678690 -0.673561 -0.165029
v 2.892853 -1.098621 -0.165029
v 2.892853 -0.673561 -0.038669
v 3.509018 -0.673561 -0.038669
v 3.509018 -0.673561 -0.165029
v 3.509018 -1.098621 -0.165029
v 3.509018 -1.098621 -0.038669
v 2.980492 -0.673561 -0.038669
v 2.980492 -0.673561 -0.165029
v 2.980492 -1.098621 -0.165029
v 2.980492 -1.098621 -0.038669
v 3.019521 -0.712053 -0.038669
v 3.469988 -0.712053 -0.038669
v 3.019521 -0.712053 -0.165029
v 3.469988 -0.712053 -0.165029
v 3.019521 -1.060128 -0.165029
v 3.469988 -1.060128 -0.165029
v 3.019521 -1.060128 -0.038669
v 3.469988 -1.060128 -0.038669
v 3.019521 -0.712162 -0.054933
v 3.469988 -0.712162 -0.054933
v 3.019521 -0.712162 -0.148765
v 3.469988 -0.712162 -0.148765
v 3.019521 -1.060237 -0.148765
v 3.469988 -1.060237 -0.148765
v 3.019521 -1.060237 -0.054933
v 3.469988 -1.060237 -0.054933
v 2.892853 -0.248500 -0.165029
v 2.892853 -0.673561 -0.038669
v 3.678690 -0.248500 -0.038669
v 3.678690 -0.673561 -0.165029
v 3.678690 -0.673561 -0.038669
v 3.678690 -0.248500 -0.165029
v 2.892853 -0.673561 -0.165029
v 2.892853 -0.248500 -0.038669
v 3.509018 -0.248500 -0.038669
v 3.509018 -0.248500 -0.165029
v 3.509018 -0.673561 -0.165029
v 3.509018 -0.673561 -0.038669
v 2.980492 -0.248500 -0.038669
v 2.980492 -0.248500 -0.165029
v 2.980492 -0.673561 -0.165029
v 2.980492 -0.673561 -0.038669
v 3.019521 -0.286993 -0.038669
v 3.469988 -0.286993 -0.038669
v 3.019521 -0.286993 -0.165029
v 3.469988 -0.286993 -0.165029
v 3.019521 -0.635068 -0.165029
v 3.469988 -0.635068 -0.165029
v 3.019521 -0.635068 -0.038669
v 3.469988 -0.635068 -0.038669
v 3.019521 -0.287101 -0.054933
v 3.469988 -0.287101 -0.054933
v 3.019521 -0.287101 -0.148765
v 3.469988 -0.287101 -0.148765
v 3.019521 -0.635176 -0.148765
v 3.469988 -0.635176 -0.148765
v 3.019521 -0.635176 -0.054933
v 3.469988 -0.635176 -0.054933
v 2.892853 0.176561 -0.165029
v 2.892853 -0.248500 -0.038669
v 3.678690 0.176561 -0.038669
v 3.678690 -0.248500 -0.165029
v 3.678690 -0.248500 -0.038669
v 3.678690 0.176561 -0.165029
v 2.892853 -0.248500 -0.165029
v 2.892853 0.176561 -0.038669
v 3.509018 0.176561 -0.038669
v 3.509018 0.176561 -0.165029
v 3.509018 -0.248500 -0.165029
v 3.509018 -0.248500 -0.038669
v 2.980492 0.176561 -0.038669
v 2.980492 0.176561 -0.165029
v 2.980492 -0.248500 -0.165029
v 2.980492 -0.248500 -0.038669
v 3.019521 0.138068 -0.038669
v 3.469988 0.138068 -0.038669
v 3.019521 0.138068 -0.165029
v 3.469988 0.138068 -0.165029
v 3.019521 -0.210007 -0.165029
v 3.469988 -0.210007 -0.165029
v 3.019521 -0.210007 -0.038669
v 3.469988 -0.210007 -0.038669
v 3.019521 0.137959 -0.054933
v 3.469988 0.137959 -0.054933
v 3.019521 0.137959 -0.148765
v 3.469988 0.137959 -0.148765
v 3.019521 -0.210115 -0.148765
v 3.469988 -0.210115 -0.148765
v 3.019521 -0.210115 -0.054933
v 3.469988 -0.210115 -0.054933
v 2.892853 0.554582 -0.165029
v 2.892853 0.176561 -0.038669
v 3.678690 0.554582 -0.038669
v 3.678690 0.176561 -0.165029
v 3.678690 0.176561 -0.038669
v 3.678690 0.554582 -0.165029
v 2.892853 0.176561 -0.165029
v 2.892853 0.554582 -0.038669
v 3.509018 0.554582 -0.038669
v 3.509018 0.554582 -0.165029
v 3.509018 0.176561 -0.165029
v 3.509018 0.176561 -0.038669
v 2.980492 0.554582 -0.038669
v 2.980492 0.554582 -0.165029
v 2.980492 0.176561 -0.165029
v 2.980492 0.176561 -0.038669
v 3.019521 0.516089 -0.038669
v 3.469988 0.516089 -0.038669
v 3.019521 0.516089 -0.165029
v 3.469988 0.516089 -0.165029
v 3.019521 0.215054 -0.165029
v 3.469988 0.215054 -0.165029
v 3.019521 0.215054 -0.038669
v 3.469988 0.215054 -0.038669
v 3.019521 0.515981 -0.054933
v 3.469988 0.515981 -0.054933
v 3.019521 0.515981 -0.148765
v 3.469988 0.515981 -0.148765
v 3.019521 0.214945 -0.148765
v 3.469988 0.214945 -0.148765
v 3.019521 0.214945 -0.054933
v 3.469988 0.214945 -0.054933
vt 0.449929 0.262356
vt 0.593397 0.262356
vt 0.593397 0.295287
vt 0.449929 0.295287
vt 0.726776 0.032931
vt 0.726776 0.000000
vt 0.801764 0.000000
vt 0.801764 0.032931
vt 0.593397 0.359044
vt 0.449929 0.359044
vt 0.449929 0.295287
vt 0.593396 0.295287
vt 0.876752 0.294086
vt 0.876752 0.150304
vt 0.951740 0.150304
vt 0.951740 0.294086
vt 0.951740 0.295287
vt 0.951740 0.439069
vt 0.876752 0.439069
vt 0.876752 0.295287
vt 0.449929 0.557643
vt 0.463510 0.373709
vt 0.463510 0.542977
vt 0.726776 0.295287
vt 0.726776 0.231531
vt 0.801764 0.231531
vt 0.801764 0.295287
vt 0.449929 0.000000
vt 0.593397 0.000000
vt 0.593397 0.063756
vt 0.449929 0.063756
vt 0.593397 0.590575
vt 0.449929 0.590575
vt 0.593397 0.557643
vt 0.579815 0.542977
vt 1.000000 0.000038
vt 1.000000 0.116597
vt 0.990348 0.116559
vt 0.990348 0.000000
vt 0.987641 0.999560
vt 0.987641 0.883001
vt 0.997293 0.882962
vt 0.997293 0.999522
vt 0.579815 0.078422
vt 0.463510 0.078422
vt 0.579815 0.373709
vt 0.579815 0.247690
vt 0.463510 0.247690
vt 0.074988 0.759843
vt 0.191293 0.759843
vt 0.191293 0.929111
vt 0.074988 0.929111
vt 0.314106 0.929111
vt 0.197801 0.929111
vt 0.197801 0.759843
vt 0.314106 0.759843
vt 0.443427 0.759843
vt 0.443427 0.929111
vt 0.433775 0.929111
vt 0.433775 0.759843
vt 0.971044 0.338536
vt 0.971044 0.507804
vt 0.961392 0.507804
vt 0.961392 0.338536
vt 0.987641 0.883001
vt 0.987641 0.999560
vt 0.977989 0.999522
vt 0.977989 0.882962
vt 0.990348 0.233195
vt 0.990348 0.116636
vt 1.000000 0.116597
vt 1.000000 0.233156
vt 0.566240 0.929111
vt 0.566240 0.759843
vt 0.575892 0.759843
vt 0.575892 0.929111
vt 0.951740 0.169268
vt 0.951740 0.000000
vt 0.961392 0.000000
vt 0.961392 0.169268
vt 0.299953 0.557643
vt 0.449929 0.557643
vt 0.449929 0.590575
vt 0.299953 0.590575
vt 0.801764 0.032931
vt 0.801764 0.000000
vt 0.876752 0.000000
vt 0.876752 0.032931
vt 0.149976 0.359043
vt 0.000000 0.359044
vt 0.000000 0.295287
vt 0.149976 0.295287
vt 0.668385 0.910147
vt 0.668385 0.759842
vt 0.743373 0.759842
vt 0.743373 0.910147
vt 0.893349 0.759842
vt 0.893349 0.910147
vt 0.818361 0.910147
vt 0.818361 0.759842
vt 0.000000 0.557643
vt 0.013582 0.373709
vt 0.013582 0.542977
vt 0.801764 0.295287
vt 0.801764 0.231531
vt 0.876752 0.231531
vt 0.876752 0.295287
vt 0.299953 0.295287
vt 0.449929 0.295287
vt 0.449929 0.359044
vt 0.299953 0.359043
vt 0.149976 0.590575
vt 0.000000 0.590575
vt 0.149976 0.557643
vt 0.136395 0.542977
vt 0.990348 0.369398
vt 0.990348 0.492480
vt 0.980696 0.492442
vt 0.980696 0.369360
vt 0.971044 0.246240
vt 0.971044 0.123158
vt 0.980696 0.123120
vt 0.980696 0.246202
vt 0.436347 0.373709
vt 0.313534 0.373709
vt 0.136395 0.373709
vt 0.436347 0.542977
vt 0.313534 0.542977
vt 0.074988 0.590575
vt 0.197801 0.590575
vt 0.197801 0.759843
vt 0.074988 0.759843
vt 0.443427 0.590575
vt 0.566240 0.590575
vt 0.566240 0.759843
vt 0.443427 0.759843
vt 0.429973 0.759843
vt 0.429973 0.929111
vt 0.420321 0.929111
vt 0.420321 0.759843
vt 0.971044 0.169268
vt 0.971044 0.338536
vt 0.961392 0.338536
vt 0.961392 0.169268
vt 0.980696 0.000038
vt 0.980696 0.123120
vt 0.971044 0.123082
vt 0.971044 0.000000
vt 0.977989 0.882963
vt 0.977989 0.759881
vt 0.987641 0.759842
vt 0.987641 0.882924
vt 0.575892 0.759843
vt 0.575892 0.590575
vt 0.585544 0.590575
vt 0.585544 0.759843
vt 0.942966 0.759842
vt 0.942966 0.590574
vt 0.952618 0.590574
vt 0.952618 0.759842
vt 0.299952 0.328219
vt 0.149976 0.328219
vt 0.149976 0.295287
vt 0.299952 0.295287
vt 0.801764 0.328219
vt 0.801764 0.295287
vt 0.876752 0.295287
vt 0.876752 0.328219
vt 0.299953 0.231531
vt 0.449929 0.231531
vt 0.449929 0.295287
vt 0.299953 0.295287
vt 0.914010 0.590574
vt 0.914010 0.740879
vt 0.839022 0.740879
vt 0.839022 0.590574
vt 0.951740 0.000000
vt 0.951740 0.150304
vt 0.876752 0.150304
vt 0.876752 0.000000
vt 0.449929 0.032931
vt 0.436347 0.216865
vt 0.436347 0.047597
vt 0.801764 0.590574
vt 0.801764 0.526818
vt 0.876752 0.526818
vt 0.876752 0.590574
vt 0.299953 0.590575
vt 0.149976 0.590575
vt 0.149976 0.526818
vt 0.299953 0.526818
vt 0.299953 0.000000
vt 0.449929 0.000000
vt 0.299953 0.032932
vt 0.313534 0.047597
vt 0.990348 0.123158
vt 0.990348 0.246240
vt 0.980696 0.246202
vt 0.980696 0.123120
vt 0.971922 0.713694
vt 0.971922 0.590613
vt 0.981574 0.590574
vt 0.981574 0.713656
vt 0.163558 0.512153
vt 0.286371 0.512152
vt 0.313534 0.216865
vt 0.163558 0.342885
vt 0.286371 0.342885
vt 0.320614 0.590575
vt 0.443427 0.590575
vt 0.443427 0.759843
vt 0.320614 0.759843
vt 0.320614 0.759843
vt 0.197801 0.759843
vt 0.197801 0.590575
vt 0.320614 0.590575
vt 0.942966 0.590574
vt 0.942966 0.759842
vt 0.933314 0.759842
vt 0.933314 0.590574
vt 0.971044 0.000000
vt 0.971044 0.169268
vt 0.961392 0.169268
vt 0.961392 0.000000
vt 0.980696 0.246278
vt 0.980696 0.369360
vt 0.971044 0.369322
vt 0.971044 0.246240
vt 0.980696 0.369360
vt 0.980696 0.246278
vt 0.990348 0.246240
vt 0.990348 0.369322
vt 0.549643 0.929111
vt 0.549643 0.759843
vt 0.559295 0.759843
vt 0.559295 0.929111
vt 0.951740 0.338536
vt 0.951740 0.169268
vt 0.961392 0.169268
vt 0.961392 0.338536
vt 0.149976 0.032931
vt 0.000000 0.032931
vt 0.000000 0.000000
vt 0.149976 0.000000
vt 0.000000 0.623506
vt 0.000000 0.590575
vt 0.074988 0.590575
vt 0.074988 0.623506
vt 0.299953 0.063756
vt 0.149976 0.063756
vt 0.149976 0.000000
vt 0.299953 0.000000
vt 0.593397 0.910147
vt 0.593397 0.759842
vt 0.668385 0.759842
vt 0.668385 0.910147
vt 0.818361 0.759842
vt 0.818361 0.910147
vt 0.743373 0.910147
vt 0.743373 0.759842
vt 0.149976 0.262356
vt 0.163558 0.078422
vt 0.163558 0.247690
vt 0.000000 0.885862
vt 0.000000 0.822106
vt 0.074988 0.822106
vt 0.074988 0.885862
vt 0.149976 0.295287
vt 0.000000 0.295287
vt 0.000000 0.231531
vt 0.149976 0.231531
vt 0.299953 0.295287
vt 0.149976 0.295287
vt 0.299953 0.262356
vt 0.286371 0.247690
vt 0.997293 0.759881
vt 0.997293 0.882962
vt 0.987641 0.882924
vt 0.987641 0.759842
vt 0.980696 0.123120
vt 0.980696 0.000038
vt 0.990348 0.000000
vt 0.990348 0.123082
vt 0.013582 0.216865
vt 0.136395 0.216865
vt 0.286371 0.078422
vt 0.013582 0.047597
vt 0.136395 0.047597
vt 0.716209 0.590574
vt 0.839022 0.590574
vt 0.839022 0.759842
vt 0.716209 0.759842
vt 0.716209 0.759842
vt 0.593397 0.759842
vt 0.593397 0.590574
vt 0.716209 0.590574
vt 0.585544 0.759843
vt 0.585544 0.929111
vt 0.575892 0.929111
vt 0.575892 0.759843
vt 0.962270 0.590574
vt 0.962270 0.759842
vt 0.952618 0.759842
vt 0.952618 0.590574
vt 0.980696 0.369398
vt 0.980696 0.492480
vt 0.971044 0.492442
vt 0.971044 0.369360
vt 0.981574 0.713694
vt 0.981574 0.590613
vt 0.991226 0.590574
vt 0.991226 0.713656
vt 0.923662 0.759842
vt 0.923662 0.590574
vt 0.933314 0.590574
vt 0.933314 0.759842
vt 0.968337 0.929110
vt 0.968337 0.759842
vt 0.977989 0.759842
vt 0.977989 0.929110
vt 0.726776 0.032931
vt 0.593397 0.032931
vt 0.593397 0.000000
vt 0.726776 0.000000
vt 0.726776 0.328219
vt 0.726776 0.295287
vt 0.801764 0.295287
vt 0.801764 0.328219
vt 0.726776 0.359043
vt 0.593397 0.359043
vt 0.593397 0.295287
vt 0.726776 0.295287
vt 0.893349 0.893513
vt 0.893349 0.759842
vt 0.968337 0.759842
vt 0.968337 0.893513
vt 0.951740 0.439069
vt 0.951740 0.572740
vt 0.876752 0.572740
vt 0.876752 0.439069
vt 0.593397 0.557643
vt 0.606978 0.373709
vt 0.606978 0.542977
vt 0.726776 0.590574
vt 0.726776 0.526818
vt 0.801764 0.526818
vt 0.801764 0.590574
vt 0.726776 0.295287
vt 0.593397 0.295287
vt 0.593397 0.231531
vt 0.726776 0.231531
vt 0.726776 0.590574
vt 0.593397 0.590574
vt 0.726776 0.557643
vt 0.713194 0.542977
vt 1.000000 0.339720
vt 1.000000 0.446168
vt 0.990348 0.446130
vt 0.990348 0.339681
vt 0.956825 1.000000
vt 0.956825 0.893552
vt 0.966477 0.893513
vt 0.966477 0.999962
vt 0.606978 0.216865
vt 0.713194 0.216865
vt 0.713194 0.373709
vt 0.606978 0.047597
vt 0.713194 0.047597
vt 0.443427 0.759843
vt 0.549643 0.759843
vt 0.549643 0.929111
vt 0.443427 0.929111
vt 0.420321 0.929111
vt 0.314106 0.929111
vt 0.314106 0.759843
vt 0.420321 0.759843
vt 0.575892 0.590575
vt 0.575892 0.759843
vt 0.566240 0.759843
vt 0.566240 0.590575
vt 0.961392 0.338536
vt 0.961392 0.507804
vt 0.951740 0.507804
vt 0.951740 0.338536
vt 0.074988 0.885900
vt 0.074988 0.992348
vt 0.065336 0.992310
vt 0.065336 0.885862
vt 0.990348 0.339681
vt 0.990348 0.233233
vt 1.000000 0.233195
vt 1.000000 0.339643
vt 0.914010 0.759842
vt 0.914010 0.590574
vt 0.923662 0.590574
vt 0.923662 0.759842
vt 0.962270 0.759842
vt 0.962270 0.590574
vt 0.971922 0.590574
vt 0.971922 0.759842
vt 0.893349 0.936973
vt 0.919556 0.936973
vt 0.919556 0.942994
vt 0.893349 0.942994
vt 0.592072 0.622382
vt 0.592072 0.648647
vt 0.585544 0.648647
vt 0.585544 0.622382
vt 0.956825 0.942994
vt 0.930617 0.942994
vt 0.930617 0.936973
vt 0.956825 0.936973
vt 0.930617 0.930952
vt 0.956825 0.930952
vt 0.925087 0.936973
vt 0.925087 0.942994
vt 0.893349 0.930952
vt 0.919556 0.930952
vt 0.585544 0.706719
vt 0.585544 0.680454
vt 0.592072 0.680454
vt 0.592072 0.706719
vt 0.603189 0.910147
vt 0.606453 0.916168
vt 0.603189 0.922189
vt 0.596661 0.922189
vt 0.593397 0.916168
vt 0.596661 0.910147
vt 0.925087 0.942994
vt 0.925087 0.936973
vt 0.645623 0.953607
vt 0.642359 0.947586
vt 0.642359 0.910147
vt 0.645623 0.916168
vt 0.596661 0.959628
vt 0.593397 0.953607
vt 0.592072 0.654189
vt 0.585544 0.654189
vt 0.606453 0.953607
vt 0.603189 0.959628
vt 0.919556 0.899534
vt 0.919556 0.893513
vt 0.925087 0.893513
vt 0.925087 0.899534
vt 0.930617 0.893513
vt 0.930617 0.899534
vt 0.925087 0.899534
vt 0.925087 0.893513
vt 0.585544 0.719804
vt 0.585544 0.713261
vt 0.591074 0.713261
vt 0.591074 0.719804
vt 0.635830 0.947586
vt 0.632566 0.953607
vt 0.632566 0.916168
vt 0.635830 0.910147
vt 0.063476 0.891883
vt 0.037268 0.891883
vt 0.037268 0.885862
vt 0.063476 0.885862
vt 0.585544 0.622382
vt 0.585544 0.596117
vt 0.592072 0.596117
vt 0.592072 0.622382
vt 0.000000 0.885862
vt 0.026207 0.885862
vt 0.026207 0.891883
vt 0.000000 0.891883
vt 0.026207 0.897904
vt 0.000000 0.897904
vt 0.031738 0.891883
vt 0.031738 0.885862
vt 0.063476 0.897904
vt 0.037268 0.897904
vt 0.592072 0.654189
vt 0.592072 0.680454
vt 0.585544 0.680454
vt 0.585544 0.654189
vt 0.609717 0.959628
vt 0.606453 0.953607
vt 0.609717 0.947586
vt 0.616246 0.947586
vt 0.619510 0.953607
vt 0.616246 0.959628
vt 0.031738 0.885862
vt 0.031738 0.891883
vt 0.632566 0.953607
vt 0.629302 0.947586
vt 0.629302 0.910147
vt 0.632566 0.916168
vt 0.616246 0.910147
vt 0.619510 0.916168
vt 0.585544 0.590575
vt 0.592072 0.590575
vt 0.606453 0.916168
vt 0.609717 0.910147
vt 0.037268 0.929321
vt 0.037268 0.935342
vt 0.031738 0.935342
vt 0.031738 0.929321
vt 0.026207 0.935342
vt 0.026207 0.929321
vt 0.031738 0.929321
vt 0.031738 0.935342
vt 0.591074 0.706719
vt 0.591074 0.713261
vt 0.585544 0.713261
vt 0.585544 0.706719
vt 0.622774 0.947586
vt 0.619510 0.953607
vt 0.619510 0.916168
vt 0.622774 0.910147
vn -0.0000 0.0000 1.0000
vn 0.0000 1.0000 0.0000
vn 0.0000 0.0000 -1.0000
vn 1.0000 0.0000 0.0000
vn -1.0000 0.0000 0.0000
vn 0.0000 1.0000 -0.0067
vn 0.0000 -1.0000 -0.0067
vn -0.0000 1.0000 0.0067
vn -0.0000 -1.0000 0.0067
vn -0.5000 -0.8660 0.0000
vn -0.5000 0.8660 0.0000
vn 0.5000 0.8660 0.0000
vn 0.5000 -0.8660 0.0000
vn 0.0000 -1.0000 0.0000
usemtl PortaMaterial
s off
f 68/1/1 65/2/1 60/3/1 54/4/1
f 66/5/2 53/6/2 60/7/2 65/8/2
f 63/9/3 62/10/3 58/11/3 56/12/3
f 56/13/4 58/14/4 55/15/4 57/16/4
f 54/17/5 60/18/5 53/19/5 59/20/5
f 66/21/3 62/10/3 72/22/3 71/23/3
f 58/24/2 62/25/2 61/26/2 55/27/2
f 57/28/1 55/29/1 61/30/1 64/31/1
f 59/32/3 53/33/3 66/21/3 67/34/3
f 62/25/2 66/5/2 65/8/2 61/26/2
f 67/34/3 66/21/3 71/23/3 73/35/3
f 76/36/5 70/37/5 78/38/5 84/39/5
f 69/40/4 75/41/4 83/42/4 77/43/4
f 64/31/1 61/30/1 70/44/1 76/45/1
f 62/10/3 63/9/3 74/46/3 72/22/3
f 63/9/3 67/34/3 73/35/3 74/46/3
f 61/30/1 65/2/1 69/47/1 70/44/1
f 65/2/1 68/1/1 75/48/1 69/47/1
f 68/1/1 64/31/1 76/45/1 75/48/1
f 81/49/3 79/50/3 80/51/3 82/52/3
f 84/53/1 78/54/1 77/55/1 83/56/1
f 75/57/6 76/58/6 84/59/6 83/60/6
f 71/61/7 72/62/7 80/63/7 79/64/7
f 73/65/4 71/66/4 79/67/4 81/68/4
f 72/69/5 74/70/5 82/71/5 80/72/5
f 74/73/8 73/74/8 81/75/8 82/76/8
f 70/77/9 69/78/9 77/79/9 78/80/9
f 100/81/1 97/82/1 92/83/1 86/84/1
f 98/85/2 85/86/2 92/87/2 97/88/2
f 95/89/3 94/90/3 90/91/3 88/92/3
f 88/93/4 90/94/4 87/95/4 89/96/4
f 86/97/5 92/98/5 85/99/5 91/100/5
f 98/101/3 94/90/3 104/102/3 103/103/3
f 90/104/2 94/105/2 93/106/2 87/107/2
f 89/108/1 87/109/1 93/110/1 96/111/1
f 91/112/3 85/113/3 98/101/3 99/114/3
f 94/105/2 98/85/2 97/88/2 93/106/2
f 99/114/3 98/101/3 103/103/3 105/115/3
f 108/116/5 102/117/5 110/118/5 116/119/5
f 101/120/4 107/121/4 115/122/4 109/123/4
f 96/111/1 93/110/1 102/124/1 108/125/1
f 94/90/3 95/89/3 106/126/3 104/102/3
f 95/89/3 99/114/3 105/115/3 106/126/3
f 93/110/1 97/82/1 101/127/1 102/124/1
f 97/82/1 100/81/1 107/128/1 101/127/1
f 100/81/1 96/111/1 108/125/1 107/128/1
f 113/129/3 111/130/3 112/131/3 114/132/3
f 116/133/1 110/134/1 109/135/1 115/136/1
f 107/137/6 108/138/6 116/139/6 115/140/6
f 103/141/7 104/142/7 112/143/7 111/144/7
f 105/145/4 103/146/4 111/147/4 113/148/4
f 104/149/5 106/150/5 114/151/5 112/152/5
f 106/153/8 105/154/8 113/155/8 114/156/8
f 102/157/9 101/158/9 109/159/9 110/160/9
f 132/161/1 129/162/1 124/163/1 118/164/1
f 130/165/2 117/166/2 124/167/2 129/168/2
f 127/169/3 126/170/3 122/171/3 120/172/3
f 120/173/4 122/174/4 119/175/4 121/176/4
f 118/177/5 124/178/5 117/179/5 123/180/5
f 130/181/3 126/170/3 136/182/3 135/183/3
f 122/184/2 126/185/2 125/186/2 119/187/2
f 121/188/1 119/189/1 125/190/1 128/191/1
f 123/192/3 117/193/3 130/181/3 131/194/3
f 126/185/2 130/165/2 129/168/2 125/186/2
f 131/194/3 130/181/3 135/183/3 137/195/3
f 140/196/5 134/197/5 142/198/5 148/199/5
f 133/200/4 139/201/4 147/202/4 141/203/4
f 128/191/1 125/190/1 134/204/1 140/205/1
f 126/170/3 127/169/3 138/206/3 136/182/3
f 127/169/3 131/194/3 137/195/3 138/206/3
f 125/190/1 129/162/1 133/207/1 134/204/1
f 129/162/1 132/161/1 139/208/1 133/207/1
f 132/161/1 128/191/1 140/205/1 139/208/1
f 145/209/3 143/210/3 144/211/3 146/212/3
f 148/213/1 142/214/1 141/215/1 147/216/1
f 139/217/6 140/218/6 148/219/6 147/220/6
f 135/221/7 136/222/7 144/223/7 143/224/7
f 137/225/4 135/226/4 143/227/4 145/228/4
f 136/229/5 138/230/5 146/231/5 144/232/5
f 138/233/8 137/234/8 145/235/8 146/236/8
f 134/237/9 133/238/9 141/239/9 142/240/9
f 164/241/1 161/242/1 156/243/1 150/244/1
f 162/245/2 149/246/2 156/247/2 161/248/2
f 159/249/3 158/250/3 154/251/3 152/252/3
f 152/253/4 154/254/4 151/255/4 153/256/4
f 150/257/5 156/258/5 149/259/5 155/260/5
f 162/261/3 158/250/3 168/262/3 167/263/3
f 154/264/2 158/265/2 157/266/2 151/267/2
f 153/268/1 151/269/1 157/270/1 160/271/1
f 155/272/3 149/273/3 162/261/3 163/274/3
f 158/265/2 162/245/2 161/248/2 157/266/2
f 163/274/3 162/261/3 167/263/3 169/275/3
f 172/276/5 166/277/5 174/278/5 180/279/5
f 165/280/4 171/281/4 179/282/4 173/283/4
f 160/271/1 157/270/1 166/284/1 172/285/1
f 158/250/3 159/249/3 170/286/3 168/262/3
f 159/249/3 163/274/3 169/275/3 170/286/3
f 157/270/1 161/242/1 165/287/1 166/284/1
f 161/242/1 164/241/1 171/288/1 165/287/1
f 164/241/1 160/271/1 172/285/1 171/288/1
f 177/289/3 175/290/3 176/291/3 178/292/3
f 180/293/1 174/294/1 173/295/1 179/296/1
f 171/297/6 172/298/6 180/299/6 179/300/6
f 167/301/7 168/302/7 176/303/7 175/304/7
f 169/305/4 167/306/4 175/307/4 177/308/4
f 168/309/5 170/310/5 178/311/5 176/312/5
f 170/313/8 169/314/8 177/315/8 178/316/8
f 166/317/9 165/318/9 173/319/9 174/320/9
f 196/321/1 193/322/1 188/323/1 182/324/1
f 194/325/2 181/326/2 188/327/2 193/328/2
f 191/329/3 190/330/3 186/331/3 184/332/3
f 184/333/4 186/334/4 183/335/4 185/336/4
f 182/337/5 188/338/5 181/339/5 187/340/5
f 194/341/3 190/330/3 200/342/3 199/343/3
f 186/344/2 190/345/2 189/346/2 183/347/2
f 185/348/1 183/349/1 189/350/1 192/351/1
f 187/352/3 181/353/3 194/341/3 195/354/3
f 190/345/2 194/325/2 193/328/2 189/346/2
f 195/354/3 194/341/3 199/343/3 201/355/3
f 204/356/5 198/357/5 206/358/5 212/359/5
f 197/360/4 203/361/4 211/362/4 205/363/4
f 192/351/1 189/350/1 198/364/1 204/365/1
f 190/330/3 191/329/3 202/366/3 200/342/3
f 191/329/3 195/354/3 201/355/3 202/366/3
f 189/350/1 193/322/1 197/367/1 198/364/1
f 193/322/1 196/321/1 203/368/1 197/367/1
f 196/321/1 192/351/1 204/365/1 203/368/1
f 209/369/3 207/370/3 208/371/3 210/372/3
f 212/373/1 206/374/1 205/375/1 211/376/1
f 203/377/6 204/378/6 212/379/6 211/380/6
f 199/381/7 200/382/7 208/383/7 207/384/7
f 201/385/4 199/386/4 207/387/4 209/388/4
f 200/389/5 202/390/5 210/391/5 208/392/5
f 202/393/8 201/394/8 209/395/8 210/396/8
f 198/397/9 197/398/9 205/399/9 206/400/9
usemtl TrincoMaterial
f 1/401/10 2/402/10 4/403/10 3/404/10
f 3/405/5 4/406/5 6/407/5 5/408/5
f 5/409/11 6/410/11 8/411/11 7/412/11
f 7/412/12 8/411/12 10/413/12 9/414/12
f 4/403/10 2/402/10 14/415/10 13/416/10
f 11/417/13 12/418/13 2/402/13 1/401/13
f 9/419/4 10/420/4 12/421/4 11/422/4
f 13/423/1 14/424/1 18/425/1 17/426/1 16/427/1 15/428/1
f 8/411/11 6/410/11 15/429/11 16/430/11
f 2/431/3 12/432/3 21/433/3 22/434/3
f 16/427/1 17/426/1 23/435/1 24/436/1
f 6/407/5 4/406/5 13/437/5 15/438/5
f 18/425/1 14/424/1 26/439/1 25/440/1
f 22/441/13 21/442/13 25/443/13 26/444/13
f 19/445/12 20/446/12 24/447/12 23/448/12
f 21/449/4 19/450/4 23/451/4 25/452/4
f 14/415/14 2/402/14 22/441/14 26/444/14
f 17/426/1 18/425/1 25/440/1 23/435/1
f 10/453/3 8/454/3 20/455/3 19/456/3
f 8/411/2 16/430/2 24/447/2 20/446/2
f 12/432/3 10/453/3 19/456/3 21/433/3
f 27/457/11 28/458/11 30/459/11 29/460/11
f 29/461/5 30/462/5 32/463/5 31/464/5
f 31/465/10 32/466/10 34/467/10 33/468/10
f 33/468/13 34/467/13 36/469/13 35/470/13
f 30/459/11 28/458/11 40/471/11 39/472/11
f 37/473/12 38/474/12 28/458/12 27/457/12
f 35/475/4 36/476/4 38/477/4 37/478/4
f 39/479/3 40/480/3 44/481/3 43/482/3 42/483/3 41/484/3
f 34/467/10 32/466/10 41/485/10 42/486/10
f 28/487/1 38/488/1 47/489/1 48/490/1
f 42/483/3 43/482/3 49/491/3 50/492/3
f 32/463/5 30/462/5 39/493/5 41/494/5
f 44/481/3 40/480/3 52/495/3 51/496/3
f 48/497/12 47/498/12 51/499/12 52/500/12
f 45/501/13 46/502/13 50/503/13 49/504/13
f 47/505/4 45/506/4 49/507/4 51/508/4
f 40/471/2 28/458/2 48/497/2 52/500/2
f 43/482/3 44/481/3 51/496/3 49/491/3
f 36/509/1 34/510/1 46/511/1 45/512/1
f 34/467/14 42/486/14 50/503/14 46/502/14
f 38/488/1 36/509/1 45/512/1 47/489/1
