# Blender v2.90.1 OBJ File: 'Project.blend'
# www.blender.org
mtllib Teto.mtl
o Teto_Cube.033
v 7.305412 1.451633 -2.908663
v 7.305412 1.499385 -2.908663
v 7.305411 1.451633 1.490098
v 7.305411 1.499385 1.490098
v -7.566532 1.451633 -2.908665
v -7.566532 1.499385 -2.908665
v -7.566533 1.451633 1.490096
v -7.566533 1.499385 1.490096
vt 0.500000 1.000000
vt 0.000000 1.000000
vt 0.000000 0.000000
vt 0.500000 0.000000
vt 0.500000 0.000000
vt 1.000000 0.000000
vt 1.000000 1.000000
vt 0.500000 1.000000
vn 0.0000 -1.0000 0.0000
vn 0.0000 1.0000 0.0000
usemtl TetoMaterial
s off
f 1/1/1 3/2/1 7/3/1 5/4/1
f 6/5/2 8/6/2 4/7/2 2/8/2
