# Blender v2.90.1 OBJ File: 'Project.blend'
# www.blender.org
mtllib Ventilator.mtl
o Ventilador.001_Cylinder.001
v -1.652910 1.012523 -1.263477
v -1.652910 1.425374 -1.263477
v -1.667707 1.012523 -1.268285
v -1.667707 1.425374 -1.268285
v -1.676852 1.012523 -1.280872
v -1.676852 1.425374 -1.280872
v -1.676852 1.012523 -1.296430
v -1.676852 1.425374 -1.296430
v -1.667707 1.012523 -1.309017
v -1.667707 1.425374 -1.309017
v -1.652910 1.012523 -1.313825
v -1.652910 1.425374 -1.313825
v -1.638113 1.012523 -1.309017
v -1.638113 1.425374 -1.309017
v -1.628968 1.012523 -1.296430
v -1.628968 1.425374 -1.296430
v -1.628968 1.012523 -1.280872
v -1.628968 1.425374 -1.280872
v -1.638113 1.012523 -1.268285
v -1.638113 1.425374 -1.268285
v -1.652910 1.425374 -1.249816
v -1.675737 1.425374 -1.257233
v -1.689844 1.425374 -1.276650
v -1.689844 1.425374 -1.300652
v -1.675737 1.425374 -1.320069
v -1.652910 1.425374 -1.327486
v -1.630084 1.425374 -1.320069
v -1.615976 1.425374 -1.300652
v -1.615976 1.425374 -1.276650
v -1.630084 1.425374 -1.257233
v -1.652910 1.448188 -1.225090
v -1.690270 1.448188 -1.237229
v -1.713360 1.448188 -1.269010
v -1.713360 1.448188 -1.308293
v -1.690270 1.448188 -1.340073
v -1.652910 1.448188 -1.352212
v -1.615550 1.448188 -1.340073
v -1.592460 1.448188 -1.308293
v -1.592460 1.448188 -1.269010
v -1.615550 1.448188 -1.237229
v -1.727212 1.007703 -1.259198
v -1.643257 1.007703 -1.343154
v -2.046863 1.007703 -1.543873
v -1.927932 1.007703 -1.662805
v -2.003530 1.007703 -1.619471
v -2.028423 1.007703 -1.584899
v -1.968957 1.007703 -1.644365
v -1.761393 1.007703 -1.527181
v -1.827106 1.007703 -1.310385
v -1.978188 1.007703 -1.461467
v -1.911240 1.007703 -1.377334
v -1.845526 1.007703 -1.594130
v -1.694444 1.007703 -1.443048
v -1.827106 1.025073 -1.310385
v -1.727212 1.025073 -1.259198
v -1.643257 1.025073 -1.343154
v -1.845526 1.025073 -1.594130
v -1.927932 1.025073 -1.662805
v -2.028423 1.025073 -1.584899
v -2.046863 1.025073 -1.543873
v -1.968957 1.025073 -1.644365
v -2.003530 1.025073 -1.619471
v -1.694444 1.025073 -1.443048
v -1.761393 1.025073 -1.527181
v -1.911240 1.025073 -1.377334
v -1.978188 1.025073 -1.461467
v -1.645871 1.007703 -1.365760
v -1.590437 1.007703 -1.260764
v -1.279528 1.007703 -1.587142
v -1.201001 1.007703 -1.438405
v -1.220089 1.007703 -1.523425
v -1.245774 1.007703 -1.557414
v -1.206510 1.007703 -1.483046
v -1.379739 1.007703 -1.319317
v -1.567478 1.007703 -1.446095
v -1.378534 1.007703 -1.545850
v -1.478679 1.007703 -1.506718
v -1.290940 1.007703 -1.379941
v -1.479884 1.007703 -1.280185
v -1.567478 1.025073 -1.446095
v -1.645871 1.025073 -1.365760
v -1.590437 1.025073 -1.260764
v -1.290940 1.025073 -1.379941
v -1.201001 1.025073 -1.438405
v -1.245774 1.025073 -1.557414
v -1.279528 1.025073 -1.587142
v -1.206510 1.025073 -1.483046
v -1.220089 1.025073 -1.523425
v -1.479884 1.025073 -1.280185
v -1.379739 1.025073 -1.319317
v -1.478679 1.025073 -1.506718
v -1.378534 1.025073 -1.545850
v -1.595470 1.007703 -1.258811
v -1.714201 1.007703 -1.258811
v -1.570739 1.007703 -0.831488
v -1.738933 1.007703 -0.831488
v -1.654836 1.007703 -0.808673
v -1.612787 1.007703 -0.815518
v -1.696884 1.007703 -0.815518
v -1.760794 1.007703 -1.045149
v -1.561029 1.007703 -1.151980
v -1.561029 1.007703 -0.938318
v -1.548878 1.007703 -1.045149
v -1.748642 1.007703 -0.938318
v -1.748642 1.007703 -1.151980
v -1.561029 1.025073 -1.151980
v -1.595470 1.025073 -1.258811
v -1.714201 1.025073 -1.258811
v -1.748642 1.025073 -0.938318
v -1.738933 1.025073 -0.831488
v -1.612787 1.025073 -0.815518
v -1.570739 1.025073 -0.831488
v -1.696884 1.025073 -0.815518
v -1.654836 1.025073 -0.808673
v -1.748642 1.025073 -1.151980
v -1.760794 1.025073 -1.045149
v -1.548878 1.025073 -1.045149
v -1.561029 1.025073 -0.938318
vt 0.639658 0.541557
vt 0.621830 0.373034
vt 0.639658 0.204512
vt 0.653903 0.035989
vt 0.715595 0.010797
vt 0.777287 0.000000
vt 0.838980 0.010797
vt 0.900672 0.035989
vt 0.914917 0.204512
vt 0.932745 0.373034
vt 0.914917 0.541557
vt 0.864386 0.710080
vt 0.690189 0.710080
vt 0.545553 0.834964
vt 0.556762 0.834964
vt 0.556762 0.905905
vt 0.545553 0.905905
vt 0.977582 0.342415
vt 0.966372 0.342415
vt 0.966372 0.177011
vt 0.977582 0.177011
vt 0.296372 0.880264
vt 0.307581 0.880264
vt 0.307581 1.000000
vt 0.296372 1.000000
vt 1.000000 0.469413
vt 0.988791 0.469413
vt 0.988791 0.348008
vt 1.000000 0.348008
vt 0.296372 0.710080
vt 0.307581 0.710080
vt 1.000000 0.203104
vt 0.988791 0.203104
vt 0.988791 0.060562
vt 1.000000 0.060562
vt 0.977582 0.649189
vt 0.966372 0.649189
vt 0.966372 0.495166
vt 0.977582 0.495166
vt 0.988791 0.000000
vt 1.000000 0.000000
vt 0.545553 0.768880
vt 0.556762 0.768880
vt 0.966372 0.000000
vt 0.977582 0.000000
vt 0.545553 0.710080
vt 0.556762 0.710080
vt 0.017828 0.541557
vt 0.000000 0.373034
vt 0.017828 0.204512
vt 0.032073 0.035989
vt 0.093765 0.010797
vt 0.155457 0.000000
vt 0.217150 0.010797
vt 0.278842 0.035989
vt 0.293087 0.204512
vt 0.310915 0.373034
vt 0.293087 0.541557
vt 0.242556 0.710080
vt 0.068359 0.710080
vt 0.567971 0.908011
vt 0.579180 0.908011
vt 0.579180 0.975223
vt 0.567971 0.975223
vt 0.932745 0.329642
vt 0.943954 0.329642
vt 0.943954 0.499225
vt 0.932745 0.499225
vt 0.955163 0.671690
vt 0.943954 0.671690
vt 0.943954 0.505749
vt 0.955163 0.505749
vt 0.943954 0.338245
vt 0.955163 0.338245
vt 0.545553 0.885358
vt 0.534344 0.885358
vt 0.534344 0.710080
vt 0.545553 0.710080
vt 0.955163 0.169037
vt 0.943954 0.169037
vt 0.943954 0.000000
vt 0.955163 0.000000
vt 0.932745 0.000000
vt 0.943954 0.000000
vt 0.943954 0.165073
vt 0.932745 0.165073
vt 0.567971 0.710080
vt 0.579180 0.710080
vt 0.579180 0.775440
vt 0.567971 0.775440
vt 0.567971 0.841329
vt 0.579180 0.841329
vt 0.943954 0.673404
vt 0.932745 0.673404
vt 0.328743 0.541557
vt 0.310915 0.373034
vt 0.328743 0.204512
vt 0.342988 0.035989
vt 0.404680 0.010797
vt 0.466372 0.000000
vt 0.528065 0.010797
vt 0.589757 0.035989
vt 0.604002 0.204512
vt 0.621830 0.373034
vt 0.604002 0.541557
vt 0.553471 0.710080
vt 0.379274 0.710080
vt 0.556762 0.905437
vt 0.567971 0.905437
vt 0.567971 0.958892
vt 0.556762 0.958892
vt 0.966372 0.325181
vt 0.955163 0.325181
vt 0.955163 0.160388
vt 0.966372 0.160388
vt 0.977582 0.000000
vt 0.988791 0.000000
vt 0.988791 0.175401
vt 0.977582 0.175401
vt 0.988791 0.335539
vt 0.977582 0.335539
vt 0.534344 0.879431
vt 0.523134 0.879431
vt 0.523134 0.710080
vt 0.534344 0.710080
vt 0.977582 0.479036
vt 0.988791 0.479036
vt 0.988791 0.624205
vt 0.977582 0.624205
vt 0.966372 0.663891
vt 0.955163 0.663891
vt 0.955163 0.494777
vt 0.966372 0.494777
vt 0.556762 0.710080
vt 0.567971 0.710080
vt 0.567971 0.781031
vt 0.556762 0.781031
vt 0.556762 0.846983
vt 0.567971 0.846983
vt 0.955163 0.000000
vt 0.966372 0.000000
vt 0.219184 0.996533
vt 0.219184 0.710080
vt 0.237093 0.710080
vt 0.237093 0.996533
vt 0.621830 0.710080
vt 0.621830 0.996533
vt 0.601827 0.996533
vt 0.601827 0.710080
vt 0.579180 0.996533
vt 0.579180 0.710080
vt 0.237093 0.996533
vt 0.237093 0.710080
vt 0.257112 0.710080
vt 0.257113 0.996533
vt 0.279755 0.710080
vt 0.279755 0.996533
vt 0.296372 0.710080
vt 0.296372 0.996533
vt 0.664855 0.710080
vt 0.664855 0.996533
vt 0.642394 0.996533
vt 0.642394 0.710080
vt 0.621830 0.996533
vt 0.621830 0.710080
vt 0.196376 0.996533
vt 0.196376 0.710080
vt 0.177381 0.996533
vt 0.177381 0.710080
vt 0.088690 0.850057
vt 0.110400 0.842473
vt 0.122181 0.859907
vt 0.088690 0.871606
vt 0.123817 0.798074
vt 0.110400 0.778218
vt 0.122181 0.760784
vt 0.142879 0.791415
vt 0.123817 0.822617
vt 0.142879 0.829276
vt 0.088690 0.770634
vt 0.088690 0.749085
vt 0.066981 0.778218
vt 0.055200 0.760784
vt 0.053563 0.798074
vt 0.034502 0.791415
vt 0.053563 0.822617
vt 0.034502 0.829276
vt 0.066981 0.842473
vt 0.055200 0.859907
vt 0.033877 0.891462
vt 0.000000 0.841329
vt 0.177381 0.841329
vt 0.143504 0.891462
vt 0.088690 0.710080
vt 0.143504 0.729229
vt 0.000000 0.779362
vt 0.088690 0.910611
vt 0.177381 0.779362
vt 0.033877 0.729229
vn 0.0000 -1.0000 0.0000
vn -0.4100 0.0000 -0.9121
vn 0.7825 0.0000 -0.6227
vn -0.4560 0.0000 0.8900
vn -0.6227 0.0000 0.7825
vn 0.7071 0.0000 0.7071
vn -0.7682 0.0000 0.6402
vn 0.6402 0.0000 -0.7682
vn -0.7825 0.0000 0.6227
vn -0.9121 0.0000 -0.4100
vn 0.6227 0.0000 -0.7825
vn -0.5843 0.0000 -0.8115
vn 0.8900 0.0000 -0.4560
vn -0.8115 0.0000 -0.5843
vn 0.9925 0.0000 -0.1225
vn 0.3640 0.0000 0.9314
vn -0.7157 0.0000 -0.6984
vn -0.5638 0.0000 -0.8259
vn -0.8843 0.0000 0.4669
vn -0.3849 0.0000 -0.9229
vn 0.5450 0.0000 0.8384
vn -0.3640 0.0000 -0.9314
vn 0.6609 0.0000 -0.7504
vn 0.5638 0.0000 0.8259
vn 0.9478 0.0000 -0.3187
vn 0.1730 0.0000 0.9849
vn 0.7978 0.0000 -0.6029
vn -0.3551 0.0000 0.9348
vn -0.9936 0.0000 -0.1130
vn 0.9518 0.0000 -0.3068
vn 0.9936 0.0000 -0.1130
vn 0.0000 0.0000 -1.0000
vn 0.9959 0.0000 0.0905
vn -0.9959 0.0000 0.0905
vn 0.9936 0.0000 0.1130
vn 0.3551 0.0000 0.9348
vn -0.9936 0.0000 0.1130
vn -0.1607 0.0000 0.9870
vn -0.9518 0.0000 -0.3068
vn 0.1607 0.0000 0.9870
vn -0.3090 0.0000 0.9511
vn -0.8090 0.0000 0.5878
vn -1.0000 0.0000 0.0000
vn -0.8090 0.0000 -0.5878
vn -0.3090 0.0000 -0.9511
vn 0.3090 0.0000 -0.9511
vn 0.8090 0.0000 -0.5878
vn 1.0000 0.0000 0.0000
vn 0.3090 0.0000 0.9511
vn 0.8090 0.0000 0.5878
vn 0.2152 -0.7177 -0.6622
vn -0.6963 -0.7177 0.0000
vn 0.2152 -0.7177 0.6622
vn 0.5633 -0.7177 -0.4093
vn -0.5633 -0.7177 -0.4093
vn -0.2152 -0.7177 0.6622
vn 0.6963 -0.7177 0.0000
vn -0.2152 -0.7177 -0.6622
vn -0.5633 -0.7177 0.4093
vn 0.5633 -0.7177 0.4093
usemtl PasMaterial
s off
f 49/1/1 51/2/1 50/3/1 43/4/1 46/5/1 45/6/1 47/7/1 44/8/1 52/9/1 48/10/1 53/11/1 42/12/1 41/13/1
f 47/14/2 61/15/2 58/16/2 44/17/2
f 48/18/3 64/19/3 63/20/3 53/21/3
f 41/22/4 55/23/4 54/24/4 49/25/4
f 49/26/5 54/27/5 65/28/5 51/29/5
f 42/30/6 56/31/6 55/23/6 41/22/6
f 50/32/7 66/33/7 60/34/7 43/35/7
f 44/36/8 58/37/8 57/38/8 52/39/8
f 51/29/9 65/28/9 66/33/9 50/32/9
f 43/35/10 60/34/10 59/40/10 46/41/10
f 52/39/11 57/38/11 64/19/11 48/18/11
f 45/42/12 62/43/12 61/15/12 47/14/12
f 53/21/13 63/20/13 56/44/13 42/45/13
f 46/46/14 59/47/14 62/43/14 45/42/14
f 75/48/1 77/49/1 76/50/1 69/51/1 72/52/1 71/53/1 73/54/1 70/55/1 78/56/1 74/57/1 79/58/1 68/59/1 67/60/1
f 73/61/15 87/62/15 84/63/15 70/64/15
f 74/65/16 90/66/16 89/67/16 79/68/16
f 67/69/17 81/70/17 80/71/17 75/72/17
f 75/72/18 80/71/18 91/73/18 77/74/18
f 68/75/19 82/76/19 81/77/19 67/78/19
f 76/79/20 92/80/20 86/81/20 69/82/20
f 70/83/21 84/84/21 83/85/21 78/86/21
f 77/74/22 91/73/22 92/80/22 76/79/22
f 69/87/23 86/88/23 85/89/23 72/90/23
f 78/86/24 83/85/24 90/66/24 74/65/24
f 71/91/25 88/92/25 87/62/25 73/61/25
f 79/68/26 89/67/26 82/93/26 68/94/26
f 72/90/27 85/89/27 88/92/27 71/91/27
f 101/95/1 103/96/1 102/97/1 95/98/1 98/99/1 97/100/1 99/101/1 96/102/1 104/103/1 100/104/1 105/105/1 94/106/1 93/107/1
f 99/108/28 113/109/28 110/110/28 96/111/28
f 100/112/29 116/113/29 115/114/29 105/115/29
f 93/116/30 107/117/30 106/118/30 101/119/30
f 101/119/31 106/118/31 117/120/31 103/121/31
f 94/122/32 108/123/32 107/124/32 93/125/32
f 102/126/33 118/127/33 112/128/33 95/129/33
f 96/130/34 110/131/34 109/132/34 104/133/34
f 103/121/35 117/120/35 118/127/35 102/126/35
f 95/134/36 112/135/36 111/136/36 98/137/36
f 104/133/37 109/132/37 116/113/37 100/112/37
f 97/138/38 114/139/38 113/109/38 99/108/38
f 105/115/39 115/114/39 108/140/39 94/141/39
f 98/137/40 111/136/40 114/139/40 97/138/40
usemtl SuporteVentilador
f 1/142/41 2/143/41 4/144/41 3/145/41
f 3/146/42 4/147/42 6/148/42 5/149/42
f 5/149/43 6/148/43 8/150/43 7/151/43
f 7/152/44 8/153/44 10/154/44 9/155/44
f 9/155/45 10/154/45 12/156/45 11/157/45
f 11/157/46 12/156/46 14/158/46 13/159/46
f 13/160/47 14/161/47 16/162/47 15/163/47
f 15/163/48 16/162/48 18/164/48 17/165/48
f 19/166/49 20/167/49 2/143/49 1/142/49
f 17/168/50 18/169/50 20/167/50 19/166/50
f 10/170/1 8/171/1 24/172/1 25/173/1
f 4/174/1 2/175/1 21/176/1 22/177/1
f 8/171/1 6/178/1 23/179/1 24/172/1
f 6/178/1 4/174/1 22/177/1 23/179/1
f 2/175/1 20/180/1 30/181/1 21/176/1
f 20/180/1 18/182/1 29/183/1 30/181/1
f 18/182/1 16/184/1 28/185/1 29/183/1
f 16/184/1 14/186/1 27/187/1 28/185/1
f 14/186/1 12/188/1 26/189/1 27/187/1
f 12/188/1 10/170/1 25/173/1 26/189/1
f 27/187/51 26/189/51 36/190/51 37/191/51
f 24/172/52 23/179/52 33/192/52 34/193/52
f 21/176/53 30/181/53 40/194/53 31/195/53
f 28/185/54 27/187/54 37/191/54 38/196/54
f 25/173/55 24/172/55 34/193/55 35/197/55
f 22/177/56 21/176/56 31/195/56 32/198/56
f 29/183/57 28/185/57 38/196/57 39/199/57
f 26/189/58 25/173/58 35/197/58 36/190/58
f 23/179/59 22/177/59 32/198/59 33/192/59
f 30/181/60 29/183/60 39/199/60 40/194/60
