# Blender v2.90.1 OBJ File: 'Project.blend'
# www.blender.org
mtllib Window.mtl
o BatenteJanela_Cube.002
v 3.595501 -0.913941 1.291341
v 2.095501 0.086059 1.291340
v 2.095501 -0.913941 1.291340
v 3.595501 0.086059 1.291341
v 3.595501 0.086059 1.491341
v 2.095501 -0.913941 1.491340
v 2.095501 0.086059 1.491340
v 3.595501 -0.913941 1.491341
v 3.560562 -0.885861 1.291341
v 3.560562 0.057979 1.291341
v 2.130440 -0.885861 1.291340
v 2.130440 0.057979 1.291340
v 2.130440 -0.885861 1.491340
v 3.560562 -0.885861 1.491341
v 2.130440 0.057979 1.491340
v 3.560562 0.057979 1.491341
v 3.560562 -0.885861 1.277943
v 3.560562 0.057979 1.277943
v 2.130440 -0.885861 1.277943
v 2.130440 0.057979 1.277943
v 2.130440 -0.885861 1.504738
v 3.560562 -0.885861 1.504738
v 2.130440 0.057979 1.504738
v 3.560562 0.057979 1.504738
v 3.527694 -0.862022 1.277943
v 3.527694 0.034140 1.277943
v 2.163308 -0.862022 1.277943
v 2.163308 0.034140 1.277943
v 2.163308 -0.862022 1.504738
v 3.527694 -0.862022 1.504738
v 2.163308 0.034140 1.504738
v 3.527694 0.034140 1.504738
vt 0.000000 0.000000
vt 0.347176 0.000000
vt 0.337427 0.011924
vt 0.009749 0.011924
vt 0.851827 0.000000
vt 0.921262 0.000000
vt 0.921262 0.511924
vt 0.851827 0.511924
vt 0.921262 0.511924
vt 0.990697 0.511924
vt 0.990697 0.853207
vt 0.921262 0.853207
vt 0.990697 0.511924
vt 0.921262 0.511924
vt 0.921262 0.000000
vt 0.990697 0.000000
vt 0.000000 0.511924
vt 0.009749 0.500000
vt 0.921262 0.853207
vt 0.851827 0.853207
vt 0.347176 0.511924
vt 0.347176 0.000000
vt 0.356924 0.011924
vt 0.356924 0.500000
vt 0.694351 0.000000
vt 0.694351 0.511924
vt 0.684603 0.500000
vt 0.684603 0.011924
vt 0.347176 0.511924
vt 0.337427 0.500000
vt 0.990697 0.488076
vt 0.990697 0.000000
vt 0.995349 0.000000
vt 0.995349 0.488076
vt 0.995349 0.488076
vt 0.995349 0.976151
vt 0.990697 0.976151
vt 0.990697 0.488076
vt 1.000000 0.000000
vt 1.000000 0.488076
vt 0.995349 0.488076
vt 0.995349 0.000000
vt 0.694351 0.511924
vt 0.694351 0.834041
vt 0.689700 0.834041
vt 0.689700 0.511924
vt 0.655357 0.834041
vt 0.655357 0.511924
vt 0.660008 0.511924
vt 0.660008 0.834041
vt 0.680398 0.834041
vt 0.680398 0.511924
vt 0.685049 0.511924
vt 0.685049 0.834041
vt 0.995349 0.976151
vt 0.995349 0.488076
vt 1.000000 0.488076
vt 1.000000 0.976151
vt 0.689700 0.511924
vt 0.689700 0.834041
vt 0.685049 0.834041
vt 0.685049 0.511924
vt 0.000000 0.511924
vt 0.327678 0.511924
vt 0.319402 0.523142
vt 0.008276 0.523142
vt 0.327678 1.000000
vt 0.327678 0.511924
vt 0.335955 0.523142
vt 0.335955 0.988783
vt 0.655357 0.511924
vt 0.655357 1.000000
vt 0.647080 0.988783
vt 0.647080 0.523141
vt 0.327678 1.000000
vt 0.319402 0.988783
vt 0.000000 1.000000
vt 0.008276 0.988783
vt 0.694351 0.465641
vt 0.773089 0.465641
vt 0.773089 0.771486
vt 0.694351 0.771486
vt 0.773089 0.465641
vt 0.773089 0.000000
vt 0.851827 0.000000
vt 0.851827 0.465641
vt 0.773089 0.771486
vt 0.851827 0.771486
vt 0.773089 0.000000
vt 0.773089 0.465641
vt 0.694351 0.465641
vt 0.694351 0.000000
vn -0.0000 0.0000 -1.0000
vn 0.0000 1.0000 0.0000
vn -1.0000 0.0000 0.0000
vn 0.0000 -1.0000 0.0000
vn 1.0000 0.0000 0.0000
vn -0.0000 0.0000 1.0000
usemtl BatentePortaMaterial
s off
f 3/1/1 2/2/1 12/3/1 11/4/1
f 2/5/2 7/6/2 5/7/2 4/8/2
f 3/9/3 6/10/3 7/11/3 2/12/3
f 1/13/4 8/14/4 6/15/4 3/16/4
f 1/17/1 3/1/1 11/4/1 9/18/1
f 4/8/5 5/7/5 8/19/5 1/20/5
f 5/21/6 7/22/6 15/23/6 16/24/6
f 6/25/6 8/26/6 14/27/6 13/28/6
f 2/2/1 4/29/1 10/30/1 12/3/1
f 8/26/6 5/21/6 16/24/6 14/27/6
f 4/29/1 1/17/1 9/18/1 10/30/1
f 7/22/6 6/25/6 13/28/6 15/23/6
f 16/31/2 15/32/2 23/33/2 24/34/2
f 13/35/4 14/36/4 22/37/4 21/38/4
f 12/39/2 10/40/2 18/41/2 20/42/2
f 10/43/5 9/44/5 17/45/5 18/46/5
f 14/47/5 16/48/5 24/49/5 22/50/5
f 15/51/3 13/52/3 21/53/3 23/54/3
f 9/55/4 11/56/4 19/57/4 17/58/4
f 11/59/3 12/60/3 20/61/3 19/62/3
f 19/63/1 20/64/1 28/65/1 27/66/1
f 24/67/6 23/68/6 31/69/6 32/70/6
f 21/71/6 22/72/6 30/73/6 29/74/6
f 20/64/1 18/75/1 26/76/1 28/65/1
f 18/75/1 17/77/1 25/78/1 26/76/1
f 22/72/6 24/67/6 32/70/6 30/73/6
f 23/68/6 21/71/6 29/74/6 31/69/6
f 17/77/1 19/63/1 27/66/1 25/78/1
f 28/79/5 31/80/5 29/81/5 27/82/5
f 25/83/2 27/84/2 29/85/2 30/86/2
f 26/87/3 25/83/3 30/86/3 32/88/3
f 28/89/4 26/90/4 32/91/4 31/92/4
